<svg width="397" height="338" viewBox="0 0 397 338" fill="none" xmlns="http://www.w3.org/2000/svg">
<g filter="url(#filter0_d_12_5)">
<path d="M2 17C2 8.16344 9.16344 1 18 1H379C387.837 1 395 8.16344 395 17V319C395 327.837 387.837 335 379 335H18C9.16345 335 2 327.837 2 319V17Z" fill="white" shape-rendering="crispEdges"/>
<path d="M2 17C2 8.16344 9.16344 1 18 1H379C387.837 1 395 8.16344 395 17V319C395 327.837 387.837 335 379 335H18C9.16345 335 2 327.837 2 319V17Z" fill="url(#paint0_linear_12_5)" fill-opacity="0.2" shape-rendering="crispEdges"/>
<circle cx="26" cy="20" r="4" fill="#1BA896"/>
<path d="M37.8555 24.1172C35.9219 24.1172 34.5273 23.0977 34.5273 21.7148C34.5273 20.6484 35.3477 19.7812 36.4023 19.6172V19.5586C35.4883 19.3828 34.8555 18.6094 34.8555 17.6836C34.8555 16.3594 36.1211 15.3984 37.8555 15.3984C39.5898 15.3984 40.8555 16.3594 40.8672 17.6836C40.8555 18.6211 40.2109 19.3828 39.3203 19.5586V19.6172C40.3516 19.7812 41.1836 20.6484 41.1836 21.7148C41.1836 23.0977 39.7891 24.1172 37.8555 24.1172ZM37.8555 22.7695C38.7461 22.7695 39.3438 22.2656 39.3438 21.5391C39.3438 20.8008 38.7227 20.2617 37.8555 20.2617C36.9883 20.2617 36.3555 20.8008 36.3672 21.5391C36.3555 22.2656 36.9531 22.7695 37.8555 22.7695ZM37.8555 19.0195C38.6055 19.0195 39.1445 18.5391 39.1445 17.8594C39.1445 17.2031 38.6172 16.7344 37.8555 16.7344C37.0938 16.7344 36.5781 17.1914 36.5781 17.8594C36.5781 18.5391 37.1055 19.0195 37.8555 19.0195ZM51.0273 14.4141V20.5781H49.5391V18.0938H47.8516V16.875H49.5391V14.4141H51.0273ZM51.0273 21.0234V24.9609H43.8555V21.0234H51.0273ZM45.3555 22.1953V23.7656H49.5625V22.1953H45.3555ZM48.1914 14.9531V16.1602H46.0703C46.0938 17.373 46.8496 18.668 48.5195 19.2188L47.7812 20.4023C46.5977 20.0098 45.7832 19.2363 45.3203 18.2695C44.8457 19.3359 43.9961 20.1855 42.7422 20.5898L41.9805 19.418C43.7031 18.8672 44.5059 17.5078 44.5469 16.1602H42.4023V14.9531H48.1914Z" fill="#1BA896"/>
<g clip-path="url(#clip0_12_5)">
<mask id="mask0_12_5" style="mask-type:alpha" maskUnits="userSpaceOnUse" x="61" y="14" width="12" height="12">
<path d="M66.9902 14C67.1158 14 67.2252 14.0858 67.2559 14.2077C67.3495 14.5804 67.4729 14.9449 67.6249 15.2978C68.0222 16.2209 68.5674 17.0288 69.2595 17.7209C69.952 18.4132 70.7597 18.9584 71.6826 19.3557C72.0356 19.5076 72.4002 19.631 72.7729 19.7247C72.8948 19.7554 72.9804 19.8647 72.9804 19.9902C72.9804 20.1158 72.8948 20.2252 72.7727 20.2559C72.4001 20.3495 72.0355 20.4729 71.6826 20.6249C70.7595 21.0222 69.9518 21.5674 69.2595 22.2595C68.5674 22.952 68.0222 23.7597 67.6249 24.6826C67.4729 25.0356 67.3495 25.4002 67.2557 25.7729C67.2409 25.8321 67.2067 25.8847 67.1586 25.9223C67.1105 25.9599 67.0513 25.9803 66.9902 25.9804C66.8647 25.9804 66.7554 25.8948 66.7247 25.7727C66.631 25.4001 66.5075 25.0355 66.3555 24.6826C65.9584 23.7595 65.4134 22.9518 64.7209 22.2595C64.0286 21.5674 63.2209 21.0222 62.2978 20.6249C61.9449 20.4729 61.5804 20.3495 61.2077 20.2557C61.1485 20.2409 61.0959 20.2068 61.0583 20.1587C61.0207 20.1107 61.0002 20.0514 61 19.9904C61 19.8649 61.0858 19.7556 61.2077 19.7249C61.5804 19.6312 61.9449 19.5077 62.2978 19.3557C63.2209 18.9586 64.0288 18.4134 64.7209 17.7211C65.4132 17.029 65.9584 16.2211 66.3557 15.298C66.5076 14.9451 66.631 14.5805 66.7247 14.2079C66.7395 14.1486 66.7736 14.096 66.8217 14.0583C66.8698 14.0206 66.9291 14.0001 66.9902 14Z" fill="black"/>
</mask>
<g mask="url(#mask0_12_5)">
<g filter="url(#filter1_f_12_5)">
<path d="M59.9184 23.3663C61.3026 23.8579 62.8937 22.9361 63.4721 21.3074C64.0505 19.6789 63.3971 17.9602 62.0129 17.4685C60.6286 16.9769 59.0376 17.8987 58.459 19.5272C57.8808 21.1559 58.5341 22.8746 59.9184 23.3663Z" fill="#FFE432"/>
</g>
<g filter="url(#filter2_f_12_5)">
<path d="M66.0646 17.9968C67.9661 17.9968 69.5079 16.4211 69.5079 14.4776C69.5079 12.534 67.9663 10.9585 66.0646 10.9585C64.1629 10.9585 62.621 12.5342 62.621 14.4776C62.621 16.4211 64.1627 17.9968 66.0646 17.9968Z" fill="#FC413D"/>
</g>
<g filter="url(#filter3_f_12_5)">
<path d="M64.7263 29.2508C66.7114 29.1538 68.2188 26.9903 68.0931 24.4186C67.9676 21.8469 66.2562 19.8407 64.271 19.9378C62.2858 20.0349 60.7785 22.1983 60.9042 24.77C61.0299 27.3416 62.7411 29.3479 64.7263 29.2508Z" fill="#00B95C"/>
</g>
<g filter="url(#filter4_f_12_5)">
<path d="M64.7263 29.2508C66.7114 29.1538 68.2188 26.9903 68.0931 24.4186C67.9676 21.8469 66.2562 19.8407 64.271 19.9378C62.2858 20.0349 60.7785 22.1983 60.9042 24.77C61.0299 27.3416 62.7411 29.3479 64.7263 29.2508Z" fill="#00B95C"/>
</g>
<g filter="url(#filter5_f_12_5)">
<path d="M66.7146 27.695C68.3787 26.6823 68.8242 24.3763 67.7095 22.5442C66.5948 20.7119 64.3419 20.0475 62.6776 21.0599C61.0133 22.0727 60.5678 24.3787 61.6825 26.211C62.7976 28.0431 65.0503 28.7076 66.7146 27.695Z" fill="#00B95C"/>
</g>
<g filter="url(#filter6_f_12_5)">
<path d="M73.4415 21.9372C75.312 21.9372 76.8284 20.4769 76.8284 18.6758C76.8284 16.8745 75.312 15.4142 73.4415 15.4142C71.5709 15.4142 70.0545 16.8745 70.0545 18.6758C70.0545 20.4771 71.5709 21.9372 73.4415 21.9372Z" fill="#3186FF"/>
</g>
<g filter="url(#filter7_f_12_5)">
<path d="M58.588 21.5589C60.3105 22.8686 62.8266 22.4578 64.2081 20.641C65.5896 18.8244 65.3134 16.2898 63.5909 14.9802C61.8685 13.6703 59.3525 14.0811 57.9709 15.8979C56.5894 17.7145 56.8657 20.2493 58.588 21.5589Z" fill="#FBBC04"/>
</g>
<g filter="url(#filter8_f_12_5)">
<path d="M67.4136 23.4948C69.4692 24.9082 72.1944 24.5146 73.5 22.6153C74.8057 20.7161 74.1976 18.0309 72.1417 16.6175C70.0859 15.2037 67.3609 15.5977 66.0552 17.4966C64.7496 19.3959 65.3575 22.0812 67.4134 23.4948H67.4136Z" fill="#3186FF"/>
</g>
<g filter="url(#filter9_f_12_5)">
<path d="M71.1509 13.5688C71.6739 14.2799 71.0017 15.6623 69.6498 16.6568C68.2977 17.6513 66.7777 17.881 66.2547 17.17C65.7317 16.4587 66.4037 15.0761 67.7556 14.0818C69.1078 13.0873 70.6279 12.8576 71.1507 13.5686L71.1509 13.5688Z" fill="#749BFF"/>
</g>
<g filter="url(#filter10_f_12_5)">
<path d="M66.8573 16.9731C68.9483 15.0335 69.6659 12.4075 68.4603 11.1078C67.2548 9.80814 64.5823 10.3265 62.4913 12.2661C60.4004 14.2057 59.6826 16.8316 60.8883 18.1313C62.0939 19.431 64.7664 18.9126 66.8573 16.9731Z" fill="#FC413D"/>
</g>
<g filter="url(#filter11_f_12_5)">
<path d="M62.5711 23.9393C63.8139 24.8288 65.2406 24.9639 65.7579 24.2414C66.2752 23.5186 65.687 22.2117 64.4442 21.3222C63.2016 20.4327 61.7747 20.2976 61.2576 21.0202C60.7403 21.743 61.3283 23.0499 62.5711 23.9393Z" fill="#FFEE48"/>
</g>
</g>
</g>
<path d="M83.4688 18.2227C83.1992 17.3203 82.4961 16.7695 81.4648 16.7695C80.0938 16.7695 79.1094 17.8359 79.1094 19.7461C79.1094 21.6797 80.082 22.7461 81.5 22.7461C82.7773 22.7461 83.5977 21.9727 83.6211 20.7656H81.6523V19.5586H85.0977V20.5781C85.0977 22.7578 83.5977 24.1172 81.5 24.1172C79.1562 24.1172 77.5742 22.4531 77.5742 19.7578C77.5742 17.0391 79.2266 15.3984 81.4531 15.3984C83.3281 15.3984 84.7695 16.5586 85.0273 18.2227H83.4688ZM89.2344 24.1289C87.3125 24.1289 86.1406 22.8516 86.1406 20.8594C86.1406 18.8906 87.3359 17.5547 89.1523 17.5547C90.7109 17.5547 92.0586 18.5273 92.0586 20.7656V21.2344H87.6172C87.6348 22.3184 88.2734 22.957 89.2461 22.957C89.9023 22.957 90.3477 22.6758 90.5352 22.3008H92C91.7305 23.4023 90.7109 24.1289 89.2344 24.1289ZM87.6289 20.2148H90.6289C90.6172 19.3477 90.043 18.7148 89.1758 18.7148C88.2734 18.7148 87.6758 19.4004 87.6289 20.2148ZM93.2188 24V17.6367H94.6484V18.7148H94.7305C94.9883 17.9883 95.6328 17.5547 96.4766 17.5547C97.3438 17.5547 97.9531 17.9883 98.1992 18.7148H98.2695C98.5508 18.0117 99.2539 17.5547 100.18 17.5547C101.34 17.5547 102.16 18.3047 102.16 19.7227V24H100.672V19.957C100.672 19.1602 100.191 18.8086 99.582 18.8086C98.8438 18.8086 98.4219 19.3125 98.4219 20.0273V24H96.9688V19.8984C96.9688 19.2422 96.5234 18.8086 95.8906 18.8086C95.2461 18.8086 94.7188 19.3359 94.7188 20.1328V24H93.2188ZM103.59 24V17.6367H105.09V24H103.59ZM104.352 16.7344C103.883 16.7344 103.484 16.3711 103.484 15.9141C103.484 15.4688 103.883 15.1055 104.352 15.1055C104.832 15.1055 105.219 15.4688 105.219 15.9141C105.219 16.3711 104.832 16.7344 104.352 16.7344ZM108.02 20.2734V24H106.52V17.6367H107.949V18.7148H108.031C108.324 18 108.969 17.5547 109.918 17.5547C111.242 17.5547 112.109 18.4219 112.098 19.9453V24H110.609V20.1797C110.609 19.3242 110.152 18.8203 109.367 18.8203C108.57 18.8203 108.02 19.3477 108.02 20.2734ZM113.527 24V17.6367H115.027V24H113.527ZM114.289 16.7344C113.82 16.7344 113.422 16.3711 113.422 15.9141C113.422 15.4688 113.82 15.1055 114.289 15.1055C114.77 15.1055 115.156 15.4688 115.156 15.9141C115.156 16.3711 114.77 16.7344 114.289 16.7344ZM120.312 19.8516V21.082H116.492V19.8516H120.312ZM124.766 24.1172C122.949 24.1172 121.66 23.1328 121.625 21.7031H123.16C123.207 22.3828 123.887 22.8281 124.766 22.8281C125.703 22.8281 126.371 22.3125 126.371 21.5625C126.371 20.8008 125.715 20.25 124.613 20.25H123.852V19.0781H124.613C125.516 19.0781 126.148 18.5742 126.137 17.8359C126.148 17.1211 125.609 16.6406 124.777 16.6406C123.98 16.6406 123.289 17.0859 123.266 17.8008H121.801C121.836 16.3711 123.125 15.3984 124.789 15.3984C126.512 15.3984 127.625 16.4531 127.613 17.7539C127.625 18.7031 126.992 19.3945 126.066 19.582V19.6523C127.262 19.8164 127.941 20.5781 127.93 21.6445C127.941 23.0742 126.605 24.1172 124.766 24.1172ZM133.133 19.8516V21.082H129.312V19.8516H133.133ZM137.82 17.6367V18.7852H136.508V24H135.008V18.7852H134.059V17.6367H135.008V17.0273C135.008 15.7852 135.781 15.1172 137 15.1172C137.352 15.1172 137.668 15.1523 137.949 15.2109V16.3945C137.703 16.3594 137.516 16.3477 137.41 16.3477C136.801 16.3477 136.508 16.5938 136.508 17.168V17.6367H137.82ZM140.387 15.5156V24H138.887V15.5156H140.387ZM141.523 22.207C141.523 20.7773 142.707 20.3555 143.891 20.2852C144.33 20.2559 145.244 20.2031 145.52 20.1914V19.6875C145.52 19.0547 145.109 18.6914 144.371 18.6914C143.703 18.6914 143.293 18.9961 143.176 19.4531H141.734C141.84 18.375 142.812 17.5547 144.406 17.5547C145.613 17.5547 147.008 18.0469 147.008 19.7461V24H145.578V23.1211H145.531C145.25 23.6602 144.652 24.1289 143.656 24.1289C142.438 24.1289 141.523 23.4609 141.523 22.207ZM142.965 22.1953C142.965 22.7461 143.41 23.0273 144.043 23.0273C144.945 23.0273 145.531 22.4297 145.531 21.7148V21.1875L144.125 21.2812C143.41 21.3398 142.965 21.6328 142.965 22.1953ZM152.023 19.4531C151.93 18.9727 151.531 18.668 150.898 18.668C150.254 18.668 149.785 18.9844 149.797 19.418C149.785 19.7461 150.055 19.9922 150.699 20.1445L151.777 20.3672C152.984 20.6367 153.559 21.1875 153.57 22.1016C153.559 23.2969 152.516 24.1289 150.852 24.1289C149.234 24.1289 148.273 23.4023 148.121 22.1836H149.645C149.738 22.7227 150.16 22.9922 150.852 22.9922C151.566 22.9922 152.047 22.6992 152.047 22.2305C152.047 21.8672 151.754 21.6328 151.121 21.4922L150.102 21.2695C148.918 21.0352 148.309 20.4141 148.309 19.5C148.309 18.3281 149.316 17.5547 150.875 17.5547C152.398 17.5547 153.336 18.293 153.441 19.4531H152.023ZM156.207 20.2734V24H154.707V15.5156H156.172V18.7148H156.254C156.547 18 157.156 17.5547 158.141 17.5547C159.465 17.5547 160.332 18.4102 160.332 19.9453V24H158.844V20.1797C158.844 19.3125 158.375 18.8203 157.59 18.8203C156.781 18.8203 156.207 19.3477 156.207 20.2734ZM165.605 19.8516V21.082H161.785V19.8516H165.605ZM167.07 26.3906V17.6367H168.535V18.6797H168.629C168.863 18.2227 169.332 17.5547 170.457 17.5547C171.922 17.5547 173.082 18.7031 173.082 20.8242C173.082 22.9219 171.957 24.1172 170.457 24.1172C169.355 24.1172 168.863 23.4609 168.629 22.9922H168.57V26.3906H167.07ZM168.535 20.8125C168.535 22.0547 169.074 22.8867 170.047 22.8867C171.031 22.8867 171.559 22.0195 171.559 20.8125C171.559 19.6289 171.043 18.7734 170.047 18.7734C169.074 18.7734 168.535 19.582 168.535 20.8125ZM174.254 24V17.6367H175.707V18.6914H175.777C176 17.9648 176.621 17.543 177.348 17.543C177.512 17.543 177.746 17.5547 177.887 17.5781V18.9609C177.758 18.9141 177.441 18.8672 177.195 18.8672C176.363 18.8672 175.754 19.4414 175.754 20.25V24H174.254ZM181.391 24.1289C179.469 24.1289 178.297 22.8516 178.297 20.8594C178.297 18.8906 179.492 17.5547 181.309 17.5547C182.867 17.5547 184.215 18.5273 184.215 20.7656V21.2344H179.773C179.791 22.3184 180.43 22.957 181.402 22.957C182.059 22.957 182.504 22.6758 182.691 22.3008H184.156C183.887 23.4023 182.867 24.1289 181.391 24.1289ZM179.785 20.2148H182.785C182.773 19.3477 182.199 18.7148 181.332 18.7148C180.43 18.7148 179.832 19.4004 179.785 20.2148ZM190.871 17.6367L188.598 24H186.957L184.684 17.6367H186.277L187.742 22.3711H187.812L189.289 17.6367H190.871ZM191.809 24V17.6367H193.309V24H191.809ZM192.57 16.7344C192.102 16.7344 191.703 16.3711 191.703 15.9141C191.703 15.4688 192.102 15.1055 192.57 15.1055C193.051 15.1055 193.438 15.4688 193.438 15.9141C193.438 16.3711 193.051 16.7344 192.57 16.7344ZM197.562 24.1289C195.641 24.1289 194.469 22.8516 194.469 20.8594C194.469 18.8906 195.664 17.5547 197.48 17.5547C199.039 17.5547 200.387 18.5273 200.387 20.7656V21.2344H195.945C195.963 22.3184 196.602 22.957 197.574 22.957C198.23 22.957 198.676 22.6758 198.863 22.3008H200.328C200.059 23.4023 199.039 24.1289 197.562 24.1289ZM195.957 20.2148H198.957C198.945 19.3477 198.371 18.7148 197.504 18.7148C196.602 18.7148 196.004 19.4004 195.957 20.2148ZM202.836 24L201.031 17.6367H202.555L203.68 22.1133H203.738L204.875 17.6367H206.387L207.535 22.0898H207.594L208.707 17.6367H210.23L208.426 24H206.867L205.672 19.6875H205.59L204.395 24H202.836Z" fill="#053330"/>
<path d="M360 15.3333C360 14.9797 360.14 14.6406 360.391 14.3905C360.641 14.1405 360.98 14 361.333 14H368C368.354 14 368.693 14.1405 368.943 14.3905C369.193 14.6406 369.333 14.9797 369.333 15.3333V26L364.667 23.6667L360 26V15.3333Z" stroke="#19604C" stroke-width="1.33333" stroke-linecap="round" stroke-linejoin="round"/>
<path d="M29.2031 55.7969C29.1094 54.8281 28.2812 54.2656 27.0625 54.2656C25.7812 54.2656 25 54.8906 25 55.7344C25 56.6875 26 57.0781 26.9375 57.2969L28 57.5781C29.6875 57.9688 31.3125 58.8594 31.3125 60.8281C31.3125 62.8125 29.75 64.1719 27.0312 64.1719C24.3906 64.1719 22.7344 62.9062 22.6406 60.6719H24.6406C24.7344 61.8594 25.7344 62.4375 27.0156 62.4375C28.3594 62.4375 29.2812 61.7812 29.2812 60.8125C29.2812 59.9219 28.4531 59.5469 27.2344 59.2344L25.9531 58.9062C24.0938 58.4219 22.9375 57.4844 22.9375 55.8594C22.9375 53.8594 24.7188 52.5312 27.0938 52.5312C29.5 52.5312 31.125 53.8906 31.1562 55.7969H29.2031ZM32.9062 64V55.5156H34.8125V56.9531H34.9219C35.2656 55.9844 36.125 55.4062 37.25 55.4062C38.4062 55.4062 39.2188 55.9844 39.5469 56.9531H39.6406C40.0156 56.0156 40.9531 55.4062 42.1875 55.4062C43.7344 55.4062 44.8281 56.4062 44.8281 58.2969V64H42.8438V58.6094C42.8438 57.5469 42.2031 57.0781 41.3906 57.0781C40.4062 57.0781 39.8438 57.75 39.8438 58.7031V64H37.9062V58.5312C37.9062 57.6562 37.3125 57.0781 36.4688 57.0781C35.6094 57.0781 34.9062 57.7812 34.9062 58.8438V64H32.9062ZM46.3438 61.6094C46.3438 59.7031 47.9219 59.1406 49.5 59.0469C50.0859 59.0078 51.3047 58.9375 51.6719 58.9219V58.25C51.6719 57.4062 51.125 56.9219 50.1406 56.9219C49.25 56.9219 48.7031 57.3281 48.5469 57.9375H46.625C46.7656 56.5 48.0625 55.4062 50.1875 55.4062C51.7969 55.4062 53.6562 56.0625 53.6562 58.3281V64H51.75V62.8281H51.6875C51.3125 63.5469 50.5156 64.1719 49.1875 64.1719C47.5625 64.1719 46.3438 63.2812 46.3438 61.6094ZM48.2656 61.5938C48.2656 62.3281 48.8594 62.7031 49.7031 62.7031C50.9062 62.7031 51.6875 61.9062 51.6875 60.9531V60.25L49.8125 60.375C48.8594 60.4531 48.2656 60.8438 48.2656 61.5938ZM60.3438 57.9375C60.2188 57.2969 59.6875 56.8906 58.8438 56.8906C57.9844 56.8906 57.3594 57.3125 57.375 57.8906C57.3594 58.3281 57.7188 58.6562 58.5781 58.8594L60.0156 59.1562C61.625 59.5156 62.3906 60.25 62.4062 61.4688C62.3906 63.0625 61 64.1719 58.7812 64.1719C56.625 64.1719 55.3438 63.2031 55.1406 61.5781H57.1719C57.2969 62.2969 57.8594 62.6562 58.7812 62.6562C59.7344 62.6562 60.375 62.2656 60.375 61.6406C60.375 61.1562 59.9844 60.8438 59.1406 60.6562L57.7812 60.3594C56.2031 60.0469 55.3906 59.2188 55.3906 58C55.3906 56.4375 56.7344 55.4062 58.8125 55.4062C60.8438 55.4062 62.0938 56.3906 62.2344 57.9375H60.3438ZM65.9219 59.0312V64H63.9219V52.6875H65.875V56.9531H65.9844C66.375 56 67.1875 55.4062 68.5 55.4062C70.2656 55.4062 71.4219 56.5469 71.4219 58.5938V64H69.4375V58.9062C69.4375 57.75 68.8125 57.0938 67.7656 57.0938C66.6875 57.0938 65.9219 57.7969 65.9219 59.0312ZM73.3125 64V55.5156H75.3125V64H73.3125ZM74.3281 54.3125C73.7031 54.3125 73.1719 53.8281 73.1719 53.2188C73.1719 52.625 73.7031 52.1406 74.3281 52.1406C74.9688 52.1406 75.4844 52.625 75.4844 53.2188C75.4844 53.8281 74.9688 54.3125 74.3281 54.3125ZM79.2188 59.0312V64H77.2188V55.5156H79.125V56.9531H79.2344C79.625 56 80.4844 55.4062 81.75 55.4062C83.5156 55.4062 84.6719 56.5625 84.6562 58.5938V64H82.6719V58.9062C82.6719 57.7656 82.0625 57.0938 81.0156 57.0938C79.9531 57.0938 79.2188 57.7969 79.2188 59.0312ZM90.2656 67.3594C88.0156 67.3594 86.5938 66.3594 86.4531 64.7656H88.4375C88.5781 65.5 89.2812 65.8594 90.2969 65.8594C91.4844 65.8594 92.2656 65.3438 92.2656 64.0938V62.4688H92.1719C91.8594 63.0938 91.1875 63.875 89.7188 63.875C87.7656 63.875 86.2188 62.4531 86.2188 59.6875C86.2188 56.8906 87.7656 55.4062 89.7344 55.4062C91.2344 55.4062 91.8594 56.2969 92.1719 56.9062H92.2656V55.5156H94.2344V64.1406C94.2344 66.3125 92.5625 67.3594 90.2656 67.3594ZM90.2656 62.3125C91.5469 62.3125 92.2812 61.3438 92.2812 59.7188C92.2812 58.1094 91.5625 57.0312 90.2656 57.0312C88.9375 57.0312 88.25 58.1719 88.25 59.7188C88.25 61.2812 88.9531 62.3125 90.2656 62.3125ZM100.031 52.6875H102.531L105.891 60.9062H106.031L109.391 52.6875H111.891V64H109.938V56.2188H109.828L106.688 63.9688H105.234L102.094 56.1875H102V64H100.031V52.6875ZM113.5 61.6094C113.5 59.7031 115.078 59.1406 116.656 59.0469C117.242 59.0078 118.461 58.9375 118.828 58.9219V58.25C118.828 57.4062 118.281 56.9219 117.297 56.9219C116.406 56.9219 115.859 57.3281 115.703 57.9375H113.781C113.922 56.5 115.219 55.4062 117.344 55.4062C118.953 55.4062 120.812 56.0625 120.812 58.3281V64H118.906V62.8281H118.844C118.469 63.5469 117.672 64.1719 116.344 64.1719C114.719 64.1719 113.5 63.2812 113.5 61.6094ZM115.422 61.5938C115.422 62.3281 116.016 62.7031 116.859 62.7031C118.062 62.7031 118.844 61.9062 118.844 60.9531V60.25L116.969 60.375C116.016 60.4531 115.422 60.8438 115.422 61.5938ZM126.391 67.3594C124.141 67.3594 122.719 66.3594 122.578 64.7656H124.562C124.703 65.5 125.406 65.8594 126.422 65.8594C127.609 65.8594 128.391 65.3438 128.391 64.0938V62.4688H128.297C127.984 63.0938 127.312 63.875 125.844 63.875C123.891 63.875 122.344 62.4531 122.344 59.6875C122.344 56.8906 123.891 55.4062 125.859 55.4062C127.359 55.4062 127.984 56.2969 128.297 56.9062H128.391V55.5156H130.359V64.1406C130.359 66.3125 128.688 67.3594 126.391 67.3594ZM126.391 62.3125C127.672 62.3125 128.406 61.3438 128.406 59.7188C128.406 58.1094 127.688 57.0312 126.391 57.0312C125.062 57.0312 124.375 58.1719 124.375 59.7188C124.375 61.2812 125.078 62.3125 126.391 62.3125ZM131.875 61.6094C131.875 59.7031 133.453 59.1406 135.031 59.0469C135.617 59.0078 136.836 58.9375 137.203 58.9219V58.25C137.203 57.4062 136.656 56.9219 135.672 56.9219C134.781 56.9219 134.234 57.3281 134.078 57.9375H132.156C132.297 56.5 133.594 55.4062 135.719 55.4062C137.328 55.4062 139.188 56.0625 139.188 58.3281V64H137.281V62.8281H137.219C136.844 63.5469 136.047 64.1719 134.719 64.1719C133.094 64.1719 131.875 63.2812 131.875 61.6094ZM133.797 61.5938C133.797 62.3281 134.391 62.7031 135.234 62.7031C136.438 62.7031 137.219 61.9062 137.219 60.9531V60.25L135.344 60.375C134.391 60.4531 133.797 60.8438 133.797 61.5938ZM140.953 64V62.7344L145.328 57.2344V57.1562H141.094V55.5156H147.766V56.875L143.594 62.2812V62.3594H147.922V64H140.953ZM149.641 64V55.5156H151.641V64H149.641ZM150.656 54.3125C150.031 54.3125 149.5 53.8281 149.5 53.2188C149.5 52.625 150.031 52.1406 150.656 52.1406C151.297 52.1406 151.812 52.625 151.812 53.2188C151.812 53.8281 151.297 54.3125 150.656 54.3125ZM155.547 59.0312V64H153.547V55.5156H155.453V56.9531H155.562C155.953 56 156.812 55.4062 158.078 55.4062C159.844 55.4062 161 56.5625 160.984 58.5938V64H159V58.9062C159 57.7656 158.391 57.0938 157.344 57.0938C156.281 57.0938 155.547 57.7969 155.547 59.0312ZM166.656 64.1719C164.094 64.1719 162.531 62.4688 162.531 59.8125C162.531 57.1875 164.125 55.4062 166.547 55.4062C168.625 55.4062 170.422 56.7031 170.422 59.6875V60.3125H164.5C164.523 61.7578 165.375 62.6094 166.672 62.6094C167.547 62.6094 168.141 62.2344 168.391 61.7344H170.344C169.984 63.2031 168.625 64.1719 166.656 64.1719ZM164.516 58.9531H168.516C168.5 57.7969 167.734 56.9531 166.578 56.9531C165.375 56.9531 164.578 57.8672 164.516 58.9531Z" fill="#262626"/>
<path d="M181.562 62.1172C180.027 62.1172 178.867 61.168 178.809 59.8672H179.828C179.91 60.6289 180.648 61.1914 181.562 61.1914C182.664 61.1914 183.461 60.3828 183.461 59.3164C183.461 58.2148 182.629 57.4062 181.492 57.3945C180.777 57.3828 180.227 57.6055 179.91 58.1562H178.891L179.488 53.5156H184.082V54.4531H180.367L180.051 56.9375H180.133C180.508 56.6445 181.082 56.4453 181.68 56.4453C183.297 56.4453 184.492 57.6406 184.492 59.293C184.492 60.9336 183.25 62.1172 181.562 62.1172ZM188.235 52.918C189.794 52.9297 190.93 53.8672 190.93 55.2266C190.93 56.5859 189.794 57.5234 188.235 57.5234C186.653 57.5234 185.528 56.5859 185.528 55.2266C185.528 53.8672 186.653 52.9297 188.235 52.918ZM188.235 53.6914C187.192 53.6914 186.419 54.3242 186.43 55.2266C186.419 56.1406 187.192 56.7734 188.235 56.7734C189.266 56.7734 190.04 56.1406 190.04 55.2266C190.04 54.3242 189.266 53.6914 188.235 53.6914ZM193.884 52.5312V57.8867H192.97V52.5312H193.884ZM193.884 58.3906V60.8984H188.036V62.0703H194.259V62.8086H187.134V60.207H192.97V59.1289H187.11V58.3906H193.884ZM206.702 52.543V60.1836H205.776V56.1875H203.631V55.4258H205.776V52.543H206.702ZM206.995 61.9531V62.7266H200.01V59.4922H200.936V61.9531H206.995ZM201.686 54.6875C201.686 56.0352 202.729 57.3477 204.252 57.8633L203.772 58.6016C202.594 58.1797 201.686 57.3008 201.241 56.2227C200.789 57.4238 199.829 58.3848 198.592 58.8477L198.112 58.0977C199.647 57.5586 200.76 56.1875 200.76 54.6875V54.1484H198.405V53.3867H204.018V54.1484H201.686V54.6875Z" fill="#525252"/>
<g clip-path="url(#clip1_12_5)">
<path d="M23.1328 110V99.3945H26.0234V110H23.1328ZM24.5781 98.0078C23.6992 98.0078 22.9961 97.3438 22.9961 96.543C22.9961 95.7227 23.6992 95.0586 24.5781 95.0586C25.4375 95.0586 26.1406 95.7227 26.1406 96.543C26.1406 97.3438 25.4375 98.0078 24.5781 98.0078ZM41.2773 102.93C41.2773 107.539 38.4062 110.195 34.6758 110.195C30.9062 110.195 28.0547 107.52 28.0547 102.93C28.0547 98.3203 30.9062 95.6641 34.6758 95.6641C38.4062 95.6641 41.2773 98.3203 41.2773 102.93ZM38.2891 102.93C38.2891 99.9023 36.8633 98.2617 34.6758 98.2617C32.4883 98.2617 31.043 99.9023 31.043 102.93C31.043 105.957 32.4883 107.598 34.6758 107.598C36.8633 107.598 38.2891 105.957 38.2891 102.93ZM51.0625 99.9023C50.9453 98.7891 50.0469 98.125 48.6211 98.125C47.1367 98.125 46.3164 98.8086 46.2969 99.7461C46.2773 100.762 47.3516 101.23 48.5625 101.504L49.832 101.816C52.2539 102.363 54.0703 103.594 54.0703 105.957C54.0703 108.555 52.0391 110.195 48.6016 110.195C45.1836 110.195 42.9961 108.613 42.918 105.586H45.7695C45.8672 107.012 47 107.734 48.5625 107.734C50.1055 107.734 51.1016 107.012 51.1016 105.957C51.1016 105 50.2227 104.551 48.6797 104.16L47.1367 103.789C44.7539 103.203 43.2891 102.012 43.2891 99.9414C43.2891 97.3633 45.5547 95.6641 48.6406 95.6641C51.7656 95.6641 53.8359 97.4023 53.875 99.9023H51.0625ZM60.5156 110L60.4961 107.871L65.5742 103.203C66.9023 101.934 67.6055 101.152 67.6055 100.039C67.6055 98.7891 66.6484 98.0078 65.3594 98.0078C64.0312 98.0078 63.1719 98.8477 63.1719 100.195H60.3789C60.3594 97.4219 62.4102 95.6641 65.3984 95.6641C68.4258 95.6641 70.4375 97.3828 70.4375 99.8438C70.4375 101.445 69.6562 102.773 66.7461 105.41L64.5977 107.5V107.578H70.6328V110H60.5156ZM78.1914 110.195C75.2617 110.176 72.4883 108.438 72.4883 103.262C72.4883 98.4961 74.7734 95.6641 78.3086 95.6641C81.1602 95.6641 83.0938 97.4609 83.3867 99.7852H80.4961C80.2617 98.7891 79.4414 98.1836 78.3086 98.1836C76.3945 98.1836 75.3789 99.9219 75.3594 102.695H75.4961C76.1406 101.445 77.5469 100.703 79.1094 100.703C81.6484 100.703 83.543 102.617 83.543 105.273C83.543 108.145 81.375 110.215 78.1914 110.195ZM78.1719 107.871C79.6172 107.871 80.6914 106.777 80.6914 105.352C80.6914 103.945 79.6562 102.832 78.2109 102.832C76.7656 102.832 75.6719 103.965 75.6523 105.352C75.6719 106.738 76.7266 107.871 78.1719 107.871ZM86.707 110.176C85.7891 110.176 85.0469 109.434 85.0664 108.535C85.0469 107.637 85.7891 106.914 86.707 106.914C87.5664 106.914 88.3281 107.637 88.3281 108.535C88.3281 109.434 87.5664 110.176 86.707 110.176ZM90.6328 110L90.6133 107.871L95.6914 103.203C97.0195 101.934 97.7227 101.152 97.7227 100.039C97.7227 98.7891 96.7656 98.0078 95.4766 98.0078C94.1484 98.0078 93.2891 98.8477 93.2891 100.195H90.4961C90.4766 97.4219 92.5273 95.6641 95.5156 95.6641C98.543 95.6641 100.555 97.3828 100.555 99.8438C100.555 101.445 99.7734 102.773 96.8633 105.41L94.7148 107.5V107.578H100.75V110H90.6328ZM121.707 94.043V106.953H119.207V94.043H121.707ZM116.512 95.332C116.512 100.156 113.465 103.535 108.094 105.098L107.117 103.125C111.092 101.982 113.367 99.9219 113.797 97.3828H108.133V95.332H116.512ZM122.078 109.492V111.484H109.832V105.82H112.312V109.492H122.078ZM128.543 104.141V106.035H135.945V104.141H138.406V111.602H126.102V104.141H128.543ZM128.543 109.59H135.945V107.93H128.543V109.59ZM138.484 94.7461V96.1719C138.484 97.5195 138.484 98.9648 138.074 100.977H140.418V102.969H124.148V100.977H135.594C135.945 99.2578 135.994 97.9199 136.004 96.7383H126.141V94.7461H138.484ZM152.527 96.8164C152.527 98.9648 153.777 101.035 156.59 101.914L155.262 103.848C153.377 103.223 152.059 102.012 151.297 100.449C150.525 102.246 149.148 103.652 147.117 104.336L145.77 102.383C148.738 101.387 150.008 99.0234 150.027 96.582V94.9609H152.527V96.8164ZM160.145 94.0234V98.1836H162.547V100.254H160.145V104.57H157.645V94.0234H160.145ZM154.324 104.922C157.996 104.922 160.32 106.191 160.32 108.359C160.32 110.547 157.996 111.797 154.324 111.797C150.574 111.797 148.23 110.547 148.23 108.359C148.23 106.191 150.574 104.922 154.324 104.922ZM154.324 106.875C151.98 106.875 150.711 107.383 150.73 108.359C150.711 109.375 151.98 109.844 154.324 109.844C156.629 109.844 157.859 109.375 157.859 108.359C157.859 107.383 156.629 106.875 154.324 106.875ZM177.547 94.043V99.082H179.812V101.133H177.547V106.035H175.047V94.043H177.547ZM171.551 106.191C175.398 106.172 177.605 107.188 177.605 109.004C177.605 110.84 175.398 111.816 171.551 111.816C167.684 111.816 165.477 110.84 165.477 109.004C165.477 107.188 167.684 106.172 171.551 106.191ZM171.551 107.988C169.09 107.988 167.957 108.32 167.977 109.004C167.957 109.668 169.09 110 171.551 110C173.973 110 175.086 109.668 175.105 109.004C175.086 108.32 173.973 107.988 171.551 107.988ZM163.133 103.672C164.432 103.672 165.906 103.662 167.449 103.613V102.578C165.506 102.314 164.305 101.416 164.324 100.098C164.305 98.5156 166.023 97.5586 168.68 97.5586C171.316 97.5586 173.016 98.5156 173.035 100.098C173.016 101.416 171.844 102.314 169.93 102.578V103.535C171.385 103.457 172.85 103.34 174.227 103.164L174.402 104.844C170.633 105.508 166.531 105.547 163.387 105.547L163.133 103.672ZM173.777 95.293V97.1289H163.602V95.293H167.449V93.8867H169.93V95.293H173.777ZM168.68 99.1797C167.41 99.1797 166.688 99.5117 166.707 100.098C166.688 100.723 167.41 101.035 168.68 101.035C169.93 101.035 170.633 100.723 170.652 100.098C170.633 99.5117 169.93 99.1797 168.68 99.1797ZM182.918 108.281C182 108.281 181.258 107.539 181.277 106.641C181.258 105.742 182 105.02 182.918 105.02C183.777 105.02 184.539 105.742 184.539 106.641C184.539 107.539 183.777 108.281 182.918 108.281ZM182.918 100.84C182 100.84 181.258 100.098 181.277 99.1992C181.258 98.3008 182 97.5781 182.918 97.5781C183.777 97.5781 184.539 98.3008 184.539 99.1992C184.539 100.098 183.777 100.84 182.918 100.84ZM194.695 110L190.652 95.8594H193.855L196.238 105.742H196.355L198.953 95.8594H201.707L204.305 105.762H204.422L206.805 95.8594H210.008L205.965 110H203.094L200.398 100.664H200.281L197.566 110H194.695ZM215.105 110.215C211.863 110.215 209.871 108.105 209.871 104.746C209.871 101.465 211.883 99.2578 214.988 99.2578C217.781 99.2578 219.969 101.016 219.969 104.629V105.449H212.723C212.723 107.051 213.68 108.047 215.164 108.047C216.141 108.047 216.844 107.617 217.137 106.973H219.891C219.48 108.926 217.723 110.215 215.105 110.215ZM212.723 103.633H217.234C217.234 102.344 216.336 101.426 215.047 101.426C213.719 101.426 212.771 102.412 212.723 103.633ZM221.844 110V95.8594H224.734V101.172H224.812C225.223 100.312 226.062 99.2578 227.84 99.2578C230.184 99.2578 232.156 101.074 232.156 104.707C232.156 108.242 230.262 110.176 227.84 110.176C226.102 110.176 225.223 109.18 224.812 108.301H224.695V110H221.844ZM224.676 104.688C224.676 106.602 225.496 107.871 226.922 107.871C228.406 107.871 229.188 106.562 229.188 104.688C229.188 102.832 228.406 101.562 226.922 101.562C225.477 101.562 224.676 102.773 224.676 104.688ZM235.34 95.8594L238.777 106.641H238.914L242.371 95.8594H245.613L240.73 110H236.961L232.059 95.8594H235.34ZM247.156 110V99.3945H250.047V110H247.156ZM248.602 98.0078C247.723 98.0078 247.02 97.3438 247.02 96.543C247.02 95.7227 247.723 95.0586 248.602 95.0586C249.461 95.0586 250.164 95.7227 250.164 96.543C250.164 97.3438 249.461 98.0078 248.602 98.0078ZM257.098 110.215C253.855 110.215 251.863 108.105 251.863 104.746C251.863 101.465 253.875 99.2578 256.98 99.2578C259.773 99.2578 261.961 101.016 261.961 104.629V105.449H254.715C254.715 107.051 255.672 108.047 257.156 108.047C258.133 108.047 258.836 107.617 259.129 106.973H261.883C261.473 108.926 259.715 110.215 257.098 110.215ZM254.715 103.633H259.227C259.227 102.344 258.328 101.426 257.039 101.426C255.711 101.426 254.764 102.412 254.715 103.633ZM265.789 110L262.898 99.3945H265.828L267.488 106.562H267.586L269.324 99.3945H272.195L273.953 106.523H274.051L275.691 99.3945H278.621L275.711 110H272.664L270.828 103.262H270.691L268.855 110H265.789ZM299.422 94.0234V111.797H297.02V102.91H295.359V110.938H293.016V94.3164H295.359V100.898H297.02V94.0234H299.422ZM287.312 95.9961V105.273C288.738 105.244 290.301 105.117 292.02 104.785L292.273 106.934C289.891 107.344 287.859 107.461 286.023 107.461H284.812V95.9961H287.312ZM26.0234 123.859V138H23.1328V123.859H26.0234ZM33.0352 138.215C29.832 138.215 27.8398 136.008 27.8398 132.727C27.8398 129.445 29.832 127.258 33.0352 127.258C36.2383 127.258 38.25 129.445 38.25 132.727C38.25 136.008 36.2383 138.215 33.0352 138.215ZM33.0547 135.969C34.5391 135.969 35.3008 134.582 35.3008 132.727C35.3008 130.852 34.5391 129.465 33.0547 129.465C31.5508 129.465 30.7695 130.852 30.7695 132.727C30.7695 134.582 31.5508 135.969 33.0547 135.969ZM44.832 138.215C41.5898 138.215 39.6367 135.969 39.6367 132.727C39.6367 129.484 41.6094 127.258 44.832 127.258C47.5664 127.258 49.4219 128.859 49.5391 131.281H46.8242C46.6484 130.227 45.9648 129.504 44.8711 129.504C43.4844 129.504 42.5664 130.676 42.5664 132.688C42.5664 134.738 43.4648 135.91 44.8711 135.91C45.8867 135.91 46.6484 135.285 46.8242 134.152H49.5391C49.4023 136.555 47.6445 138.215 44.832 138.215ZM50.8281 135.031C50.8281 132.668 52.7422 131.887 54.7734 131.77C55.5352 131.721 56.9609 131.652 57.4102 131.633V130.773C57.3906 129.895 56.7852 129.367 55.7109 129.367C54.7344 129.367 54.1094 129.816 53.9531 130.539H51.1992C51.375 128.703 52.9766 127.258 55.7891 127.258C58.0938 127.258 60.2812 128.293 60.2812 130.852V138H57.5469V136.535H57.4688C56.9414 137.512 55.9453 138.195 54.3633 138.195C52.332 138.195 50.8281 137.141 50.8281 135.031ZM53.6016 134.953C53.6016 135.773 54.2656 136.203 55.1836 136.203C56.4922 136.203 57.4297 135.324 57.4102 134.211V133.43C56.9707 133.449 55.7402 133.518 55.2422 133.566C54.2461 133.664 53.6016 134.133 53.6016 134.953ZM65.3789 123.859V138H62.4883V123.859H65.3789ZM70.5156 131.867V138H67.625V123.859H70.4375V129.25H70.5547C71.043 128.02 72.1172 127.258 73.7188 127.258C75.9258 127.258 77.3906 128.742 77.3906 131.242V138H74.5V131.75C74.5 130.441 73.7969 129.66 72.5859 129.66C71.375 129.66 70.5156 130.461 70.5156 131.867ZM84.3828 138.215C81.1797 138.215 79.1875 136.008 79.1875 132.727C79.1875 129.445 81.1797 127.258 84.3828 127.258C87.5859 127.258 89.5977 129.445 89.5977 132.727C89.5977 136.008 87.5859 138.215 84.3828 138.215ZM84.4023 135.969C85.8867 135.969 86.6484 134.582 86.6484 132.727C86.6484 130.852 85.8867 129.465 84.4023 129.465C82.8984 129.465 82.1172 130.852 82.1172 132.727C82.1172 134.582 82.8984 135.969 84.4023 135.969ZM97.4688 130.539C97.3516 129.797 96.6875 129.309 95.7305 129.309C94.793 129.309 94.0703 129.758 94.0898 130.402C94.0703 130.871 94.4609 131.242 95.457 131.457L97.3516 131.848C99.4023 132.277 100.398 133.195 100.418 134.719C100.398 136.809 98.5234 138.215 95.7109 138.215C92.8398 138.215 91.1602 136.926 90.9258 134.855H93.8359C93.9727 135.695 94.6562 136.125 95.7109 136.125C96.7656 136.125 97.4688 135.695 97.4688 135.012C97.4688 134.465 97.0195 134.133 96.0234 133.918L94.2656 133.566C92.2539 133.176 91.1992 132.121 91.2188 130.559C91.1992 128.527 92.957 127.258 95.6914 127.258C98.3672 127.258 100.027 128.527 100.184 130.539H97.4688ZM107.781 127.395V129.562H105.789V134.738C105.789 135.578 106.199 135.793 106.785 135.812C107.078 135.812 107.586 135.793 107.938 135.754V138.039C107.625 138.098 107.117 138.137 106.395 138.137C104.305 138.137 102.879 137.199 102.898 135.148V129.562H101.434V127.395H102.898V124.855H105.789V127.395H107.781ZM128.504 122.023V139.836H126.023V122.023H128.504ZM122.996 123.508V130.363H117.137V133.625C119.842 133.615 122.146 133.459 124.754 133.039L124.969 135.051C122.039 135.559 119.402 135.676 116.16 135.676H114.559V128.391H120.457V125.52H114.539V123.508H122.996ZM144.91 122.023V128.625H147.527V130.656H144.91V139.836H142.41V122.023H144.91ZM139.93 123.664V125.676H134.07V133.469C136.648 133.439 138.777 133.322 141.141 132.902L141.414 134.992C138.66 135.461 136.238 135.539 133.094 135.52H131.59V123.664H139.93ZM163.055 122.023V139.836H160.535V122.023H163.055ZM153.406 123.273C156.082 123.273 158.074 125.734 158.074 129.602C158.074 133.508 156.082 135.949 153.406 135.949C150.672 135.949 148.68 133.508 148.699 129.602C148.68 125.734 150.672 123.273 153.406 123.273ZM153.406 125.52C152.02 125.52 151.102 126.965 151.102 129.602C151.102 132.258 152.02 133.684 153.406 133.684C154.754 133.684 155.672 132.258 155.672 129.602C155.672 126.965 154.754 125.52 153.406 125.52ZM180.73 133.801V139.797H178.25V135.793H168.504V133.801H180.73ZM172.449 123.332V128.723H168.582V130.48C170.506 130.461 171.932 130.344 173.602 130.051L173.836 132.023C171.805 132.375 170.047 132.453 167.41 132.453H166.18V126.906H170.066V125.305H166.16V123.332H172.449ZM180.73 122.043V133.078H178.367V122.043H180.73ZM177.098 122.375V133H174.754V128.254H173.094V126.262H174.754V122.375H177.098ZM197.234 131.203V133.176H184.656V123.332H197.098V125.344H187.195V127.219H196.688V129.172H187.195V131.203H197.234ZM199.012 135.695V137.727H182.742V135.695H199.012ZM214.051 122.023V128.84H216.57V130.891H214.051V139.758H211.551V122.023H214.051ZM209.305 123.84C209.285 129.152 207.215 133.762 201.238 136.691L199.832 134.777C204.041 132.668 206.297 129.836 206.766 125.871H200.848V123.84H209.305ZM232.02 123.059V125.051H228.484C228.504 127.131 229.734 129.26 232.625 130.188L231.355 132.121C229.383 131.486 228.025 130.217 227.254 128.625C226.463 130.363 225.047 131.74 222.977 132.414L221.648 130.5C224.588 129.553 225.926 127.277 225.965 125.051H222.332V123.059H232.02ZM236.023 122.023V126.34H238.426V128.41H236.023V132.746H233.523V122.023H236.023ZM236.023 133.508V139.797H233.523V135.48H224.051V133.508H236.023ZM255.457 130.422V132.375H239.207V130.422H246.121V128.898H241.18V122.805H253.504V124.738H243.66V126.945H253.602V128.898H248.562V130.422H255.457ZM247.293 133.273C251.141 133.273 253.465 134.445 253.484 136.555C253.465 138.625 251.141 139.816 247.293 139.816C243.406 139.816 241.062 138.625 241.062 136.555C241.062 134.445 243.406 133.273 247.293 133.273ZM247.293 135.168C244.832 135.168 243.582 135.637 243.602 136.555C243.582 137.492 244.832 137.922 247.293 137.922C249.695 137.922 250.965 137.492 250.984 136.555C250.965 135.637 249.695 135.168 247.293 135.168ZM270.516 122.023V128.977H273.133V131.027H270.516V139.797H268.055V122.023H270.516ZM266.844 124.68V126.672H256.395V124.68H260.418V122.297H262.918V124.68H266.844ZM261.668 127.668C264.266 127.668 266.199 129.426 266.199 131.906C266.199 134.387 264.266 136.145 261.668 136.145C259.051 136.145 257.117 134.387 257.117 131.906C257.117 129.426 259.051 127.668 261.668 127.668ZM261.668 129.68C260.418 129.699 259.5 130.539 259.5 131.906C259.5 133.293 260.418 134.113 261.668 134.094C262.918 134.113 263.816 133.293 263.816 131.906C263.816 130.539 262.918 129.699 261.668 129.68ZM280.672 126.867C280.672 129.738 282.137 132.805 285.125 134.055L283.777 136.008C281.678 135.119 280.232 133.352 279.441 131.184C278.631 133.537 277.156 135.49 275.066 136.457L273.641 134.484C276.59 133.176 278.113 129.875 278.113 126.867V125.773H274.344V123.742H284.383V125.773H280.672V126.867ZM288.66 122.023V139.797H286.141V122.023H288.66ZM300.574 122.883C303.309 122.883 305.34 124.621 305.34 127.023C305.34 129.465 303.309 131.184 300.574 131.184C297.859 131.184 295.789 129.465 295.789 127.023C295.789 124.621 297.859 122.883 300.574 122.883ZM300.574 124.934C299.227 124.914 298.211 125.734 298.23 127.023C298.211 128.332 299.227 129.152 300.574 129.152C301.922 129.152 302.918 128.332 302.918 127.023C302.918 125.734 301.922 124.914 300.574 124.934ZM309.773 122.023V125.715H312.176V127.766H309.773V130.793H307.273V122.023H309.773ZM299.695 132.512V137.297C300.682 137.238 301.609 137.092 302.527 136.789L302.879 138.723C301.375 139.27 299.949 139.328 298.25 139.328H297.273V132.512H299.695ZM311.219 132.531V134.367H302.273V132.531H305.555V131.281H307.977V132.531H311.219ZM306.727 134.777C308.758 134.777 310.184 135.773 310.184 137.297C310.184 138.84 308.758 139.797 306.727 139.797C304.676 139.797 303.289 138.84 303.309 137.297C303.289 135.773 304.676 134.777 306.727 134.777ZM306.727 136.496C306.023 136.516 305.496 136.789 305.516 137.297C305.496 137.824 306.023 138.098 306.727 138.098C307.43 138.098 307.957 137.824 307.957 137.297C307.957 136.789 307.43 136.516 306.727 136.496ZM327.391 126.867V128.82H314.969V122.648H317.449V126.867H327.391ZM329.207 130.734V132.688H312.938V130.734H329.207ZM327.508 137.414V139.406H314.812V134.133H317.312V137.414H327.508ZM338.68 138L334.637 123.859H337.84L340.223 133.742H340.34L342.938 123.859H345.691L348.289 133.762H348.406L350.789 123.859H353.992L349.949 138H347.078L344.383 128.664H344.266L341.551 138H338.68ZM355.984 138.176C355.066 138.176 354.324 137.434 354.344 136.535C354.324 135.637 355.066 134.914 355.984 134.914C356.844 134.914 357.605 135.637 357.605 136.535C357.605 137.434 356.844 138.176 355.984 138.176ZM361.629 138.176C360.711 138.176 359.969 137.434 359.988 136.535C359.969 135.637 360.711 134.914 361.629 134.914C362.488 134.914 363.25 135.637 363.25 136.535C363.25 137.434 362.488 138.176 361.629 138.176ZM367.273 138.176C366.355 138.176 365.613 137.434 365.633 136.535C365.613 135.637 366.355 134.914 367.273 134.914C368.133 134.914 368.895 135.637 368.895 136.535C368.895 137.434 368.133 138.176 367.273 138.176Z" fill="#262626"/>
</g>
<g clip-path="url(#clip2_12_5)">
<path d="M22.8887 172V164.576H24.3516V172H22.8887ZM23.627 163.428C23.1211 163.428 22.6973 163.045 22.6973 162.566C22.6973 162.088 23.1211 161.705 23.627 161.705C24.1191 161.705 24.543 162.088 24.543 162.566C24.543 163.045 24.1191 163.428 23.627 163.428ZM34.8516 167.051C34.8516 170.209 32.9512 172.137 30.3945 172.137C27.8105 172.137 25.9238 170.209 25.9238 167.051C25.9238 163.879 27.8105 161.965 30.3945 161.965C32.9512 161.965 34.8516 163.879 34.8516 167.051ZM33.3613 167.051C33.3613 164.645 32.0898 163.346 30.3945 163.346C28.6855 163.346 27.4141 164.645 27.4141 167.051C27.4141 169.457 28.6855 170.756 30.3945 170.756C32.0898 170.756 33.3613 169.457 33.3613 167.051ZM41.9336 164.713C41.8379 163.797 41.0312 163.264 39.8965 163.264C38.6797 163.264 37.9141 163.879 37.9141 164.727C37.9141 165.67 38.9395 166.025 39.7188 166.217L40.6758 166.477C41.9473 166.777 43.5195 167.475 43.5332 169.266C43.5195 170.934 42.1934 172.164 39.8555 172.164C37.6406 172.164 36.2461 171.057 36.1504 169.252H37.6543C37.75 170.332 38.6934 170.852 39.8555 170.852C41.1133 170.852 42.0293 170.209 42.043 169.238C42.0293 168.377 41.2227 168.021 40.1699 167.748L38.9941 167.434C37.4082 166.996 36.4102 166.189 36.4102 164.809C36.4102 163.1 37.9414 161.965 39.9375 161.965C41.9473 161.965 43.3555 163.113 43.3965 164.713H41.9336ZM48.4277 172V170.906L51.8594 167.447C52.9395 166.312 53.4863 165.684 53.4863 164.822C53.4863 163.852 52.6934 163.223 51.6543 163.223C50.5605 163.223 49.8496 163.92 49.8496 164.973H48.4277C48.4141 163.168 49.7949 161.965 51.6816 161.965C53.5957 161.965 54.9082 163.168 54.9219 164.781C54.9082 165.889 54.3887 166.764 52.5293 168.596L50.5195 170.633V170.715H55.0859V172H48.4277ZM60.3359 172.137C58.5039 172.123 56.5898 171.043 56.5898 167.379C56.5898 163.934 58.0801 161.965 60.459 161.965C62.2773 161.965 63.5488 163.1 63.7812 164.672H62.291C62.0996 163.865 61.457 163.277 60.459 163.277C58.9277 163.277 58.0391 164.617 58.0391 166.846H58.1484C58.6816 166.012 59.6113 165.506 60.6914 165.506C62.4551 165.506 63.877 166.859 63.877 168.76C63.877 170.674 62.4688 172.15 60.3359 172.137ZM60.3223 170.879C61.5254 170.879 62.4141 169.949 62.4141 168.787C62.4141 167.652 61.5527 166.736 60.3633 166.736C59.1465 166.736 58.2305 167.693 58.2168 168.801C58.2305 169.895 59.1055 170.879 60.3223 170.879ZM65.9961 172.096C65.4629 172.096 65.0117 171.658 65.0254 171.125C65.0117 170.592 65.4629 170.154 65.9961 170.154C66.5156 170.154 66.9668 170.592 66.9668 171.125C66.9668 171.658 66.5156 172.096 65.9961 172.096ZM68.7168 172V170.906L72.1484 167.447C73.2285 166.312 73.7754 165.684 73.7754 164.822C73.7754 163.852 72.9824 163.223 71.9434 163.223C70.8496 163.223 70.1387 163.92 70.1387 164.973H68.7168C68.7031 163.168 70.084 161.965 71.9707 161.965C73.8848 161.965 75.1973 163.168 75.2109 164.781C75.1973 165.889 74.6777 166.764 72.8184 168.596L70.8086 170.633V170.715H75.375V172H68.7168ZM83.4277 161.473C85.041 161.459 86.2852 162.396 86.5586 163.77H88.9512V160.912H90.25V167.488H88.9512V164.836H86.5723C86.3057 166.244 85.0547 167.188 83.4277 167.188C81.5547 167.188 80.2148 166.012 80.2148 164.316C80.2148 162.648 81.5547 161.459 83.4277 161.473ZM83.4277 162.553C82.2656 162.553 81.459 163.264 81.459 164.316C81.459 165.369 82.2656 166.094 83.4277 166.094C84.5625 166.094 85.3691 165.369 85.3691 164.316C85.3691 163.264 84.5625 162.553 83.4277 162.553ZM83.5508 168.076V169.498H88.9512V168.076H90.25V173.012H82.2656V168.076H83.5508ZM83.5508 171.945H88.9512V170.523H83.5508V171.945ZM102.664 160.912V173.162H101.406V160.912H102.664ZM100.135 161.172V172.547H98.9043V166.6H96.3887V165.52H98.9043V161.172H100.135ZM97.2227 162.375V163.441H93.8457V169.197C95.4521 169.184 96.5322 169.115 97.7969 168.842L97.9062 169.936C96.498 170.223 95.2949 170.277 93.3809 170.277H92.5742V162.375H97.2227ZM114.381 160.912V173.189H113.082V160.912H114.381ZM107.832 161.828C109.65 161.828 110.99 163.496 110.99 166.121C110.99 168.76 109.65 170.428 107.832 170.428C105.986 170.428 104.66 168.76 104.66 166.121C104.66 163.496 105.986 161.828 107.832 161.828ZM107.832 162.99C106.697 162.99 105.918 164.193 105.918 166.121C105.918 168.062 106.697 169.266 107.832 169.266C108.953 169.266 109.732 168.062 109.732 166.121C109.732 164.193 108.953 162.99 107.832 162.99ZM126.275 167.434V168.473H117.744V161.924H126.152V162.977H119.057V164.631H125.893V165.656H119.057V167.434H126.275ZM127.547 170.551V171.617H116.336V170.551H127.547ZM141.998 160.912V173.189H140.699V160.912H141.998ZM135.449 161.828C137.268 161.828 138.607 163.496 138.607 166.121C138.607 168.76 137.268 170.428 135.449 170.428C133.604 170.428 132.277 168.76 132.277 166.121C132.277 163.496 133.604 161.828 135.449 161.828ZM135.449 162.99C134.314 162.99 133.535 164.193 133.535 166.121C133.535 168.062 134.314 169.266 135.449 169.266C136.57 169.266 137.35 168.062 137.35 166.121C137.35 164.193 136.57 162.99 135.449 162.99ZM154.494 162.266V163.332H144.527V162.266H148.889V160.857H150.174V162.266H154.494ZM155.164 168.842V169.908H150.174V173.176H148.889V169.908H143.953V168.842H155.164ZM149.531 163.961C152.074 163.961 153.605 164.686 153.605 166.025C153.605 167.338 152.074 168.062 149.531 168.076C146.975 168.062 145.443 167.338 145.457 166.025C145.443 164.686 146.975 163.961 149.531 163.961ZM149.531 164.932C147.768 164.932 146.797 165.314 146.797 166.025C146.797 166.709 147.768 167.092 149.531 167.092C151.281 167.092 152.252 166.709 152.266 166.025C152.252 165.314 151.281 164.932 149.531 164.932ZM161.986 172L159.238 162.102H160.824L162.752 169.758H162.834L164.844 162.102H166.402L168.412 169.758H168.494L170.422 162.102H172.008L169.26 172H167.742L165.664 164.604H165.582L163.504 172H161.986ZM175.576 172.15C173.389 172.15 172.049 170.646 172.049 168.336C172.049 166.053 173.416 164.48 175.48 164.48C177.176 164.48 178.775 165.533 178.775 168.213V168.732H173.498C173.539 170.141 174.366 170.947 175.59 170.947C176.424 170.947 176.957 170.592 177.203 170.141H178.68C178.352 171.344 177.203 172.15 175.576 172.15ZM173.512 167.639H177.34C177.34 166.504 176.615 165.684 175.494 165.684C174.325 165.684 173.566 166.586 173.512 167.639ZM180.348 172V162.102H181.797V165.779H181.879C182.152 165.314 182.645 164.48 184.012 164.48C185.803 164.48 187.143 165.889 187.143 168.309C187.143 170.701 185.83 172.15 184.025 172.15C182.672 172.15 182.152 171.33 181.879 170.838H181.77V172H180.348ZM181.77 168.281C181.77 169.84 182.467 170.906 183.697 170.906C184.982 170.906 185.652 169.771 185.652 168.281C185.652 166.818 184.996 165.725 183.697 165.725C182.453 165.725 181.77 166.736 181.77 168.281ZM188.715 172V162.102H190.219V166.818H190.342L194.484 162.102H196.371L192.379 166.559L196.385 172H194.566L191.381 167.584L190.219 168.924V172H188.715ZM197.957 172V164.576H199.42V172H197.957ZM198.695 163.428C198.189 163.428 197.766 163.045 197.766 162.566C197.766 162.088 198.189 161.705 198.695 161.705C199.188 161.705 199.611 162.088 199.611 162.566C199.611 163.045 199.188 163.428 198.695 163.428ZM204.67 164.576V165.738H203.152V169.812C203.152 170.646 203.576 170.797 204.041 170.811C204.246 170.811 204.574 170.783 204.779 170.77V172.041C204.574 172.068 204.26 172.096 203.863 172.096C202.715 172.096 201.689 171.467 201.703 170.113V165.738H200.609V164.576H201.703V162.799H203.152V164.576H204.67ZM219.258 160.912V173.162H217.945V160.912H219.258ZM215.607 162.225C215.607 165.807 214.076 168.924 209.879 170.934L209.195 169.881C212.456 168.329 214.042 166.121 214.295 163.264H209.783V162.225H215.607ZM230.797 160.926V164.535H232.574V165.629H230.797V169.922H229.498V160.926H230.797ZM231.316 171.85V172.902H223.031V169.033H224.33V171.85H231.316ZM222.922 161.801V163.756H226.135V161.801H227.42V167.898H221.65V161.801H222.922ZM222.922 166.859H226.135V164.781H222.922V166.859ZM239.205 172L236.457 162.102H238.043L239.971 169.758H240.053L242.062 162.102H243.621L245.631 169.758H245.713L247.641 162.102H249.227L246.479 172H244.961L242.883 164.604H242.801L240.723 172H239.205ZM252.795 172.15C250.607 172.15 249.268 170.646 249.268 168.336C249.268 166.053 250.635 164.48 252.699 164.48C254.395 164.48 255.994 165.533 255.994 168.213V168.732H250.717C250.758 170.141 251.585 170.947 252.809 170.947C253.643 170.947 254.176 170.592 254.422 170.141H255.898C255.57 171.344 254.422 172.15 252.795 172.15ZM250.73 167.639H254.559C254.559 166.504 253.834 165.684 252.713 165.684C251.544 165.684 250.785 166.586 250.73 167.639ZM257.566 172V162.102H259.016V165.779H259.098C259.371 165.314 259.863 164.48 261.23 164.48C263.021 164.48 264.361 165.889 264.361 168.309C264.361 170.701 263.049 172.15 261.244 172.15C259.891 172.15 259.371 171.33 259.098 170.838H258.988V172H257.566ZM258.988 168.281C258.988 169.84 259.686 170.906 260.916 170.906C262.201 170.906 262.871 169.771 262.871 168.281C262.871 166.818 262.215 165.725 260.916 165.725C259.672 165.725 258.988 166.736 258.988 168.281ZM266.057 162.102L268.805 170.154H268.914L271.662 162.102H273.289L269.721 172H267.984L264.43 162.102H266.057ZM274.424 172V164.576H275.887V172H274.424ZM275.162 163.428C274.656 163.428 274.232 163.045 274.232 162.566C274.232 162.088 274.656 161.705 275.162 161.705C275.654 161.705 276.078 162.088 276.078 162.566C276.078 163.045 275.654 163.428 275.162 163.428ZM280.863 172.15C278.676 172.15 277.336 170.646 277.336 168.336C277.336 166.053 278.703 164.48 280.768 164.48C282.463 164.48 284.062 165.533 284.062 168.213V168.732H278.785C278.826 170.141 279.653 170.947 280.877 170.947C281.711 170.947 282.244 170.592 282.49 170.141H283.967C283.639 171.344 282.49 172.15 280.863 172.15ZM278.799 167.639H282.627C282.627 166.504 281.902 165.684 280.781 165.684C279.612 165.684 278.854 166.586 278.799 167.639ZM287.084 172L284.91 164.576H286.414L287.863 170.018H287.945L289.395 164.576H290.898L292.334 169.99H292.416L293.852 164.576H295.355L293.182 172H291.691L290.188 166.654H290.078L288.588 172H287.084ZM306.662 160.912V173.162H305.418V160.912H306.662ZM304.174 161.145V172.561H302.93V166.654H301.549C301.439 169.047 300.414 170.537 298.896 170.523C297.297 170.537 296.258 168.855 296.258 166.203C296.258 163.551 297.297 161.883 298.896 161.896C300.387 161.883 301.398 163.298 301.549 165.602H302.93V161.145H304.174ZM298.896 163.113C298.008 163.113 297.461 164.248 297.461 166.203C297.461 168.158 298.008 169.293 298.896 169.293C299.799 169.293 300.359 168.158 300.359 166.203C300.359 164.248 299.799 163.113 298.896 163.113ZM312.637 164.029C312.637 166.271 313.895 168.5 315.768 169.348L314.975 170.387C313.58 169.689 312.534 168.302 311.994 166.627C311.454 168.391 310.381 169.881 308.973 170.619L308.152 169.566C310.053 168.664 311.324 166.299 311.324 164.029V161.938H312.637V164.029ZM318.434 160.912V173.189H317.148V166.039H314.414V164.986H317.148V160.912H318.434ZM24.3516 182.102V192H22.8887V182.102H24.3516ZM29.2734 192.15C27.168 192.15 25.8008 190.619 25.8008 188.322C25.8008 186.012 27.168 184.48 29.2734 184.48C31.3652 184.48 32.7324 186.012 32.7324 188.322C32.7324 190.619 31.3652 192.15 29.2734 192.15ZM29.2734 190.934C30.6133 190.934 31.2559 189.744 31.2559 188.322C31.2559 186.9 30.6133 185.684 29.2734 185.684C27.9062 185.684 27.2637 186.9 27.2637 188.322C27.2637 189.744 27.9062 190.934 29.2734 190.934ZM37.3125 192.15C35.1523 192.15 33.8398 190.551 33.8398 188.322C33.8398 186.053 35.1934 184.48 37.2852 184.48C38.9805 184.48 40.2109 185.479 40.3613 186.982H38.9395C38.7891 186.285 38.2285 185.697 37.3125 185.697C36.1094 185.697 35.3027 186.695 35.3027 188.281C35.3027 189.908 36.0957 190.906 37.3125 190.906C38.1328 190.906 38.7617 190.455 38.9395 189.648H40.3613C40.1973 191.084 39.0625 192.15 37.3125 192.15ZM41.4004 189.908C41.4004 188.213 42.8359 187.775 44.1758 187.68C44.668 187.646 45.7822 187.584 46.1309 187.57L46.1172 186.982C46.1172 186.148 45.6113 185.656 44.6133 185.656C43.752 185.656 43.2324 186.053 43.082 186.6H41.6328C41.7695 185.369 42.918 184.48 44.668 184.48C45.8438 184.48 47.5801 184.918 47.5801 187.064V192H46.1582V190.988H46.1035C45.8164 191.549 45.1328 192.164 43.9023 192.164C42.4941 192.164 41.4004 191.357 41.4004 189.908ZM42.8223 189.922C42.8223 190.633 43.4102 191.002 44.2305 191.002C45.4199 191.002 46.1309 190.209 46.1309 189.32V188.637L44.3809 188.76C43.4238 188.828 42.8223 189.184 42.8223 189.922ZM50.8066 182.102V192H49.3438V182.102H50.8066ZM54.0469 187.598V192H52.584V182.102H54.0195V185.793H54.1152C54.4707 184.986 55.1543 184.48 56.3164 184.48C57.8477 184.48 58.8594 185.424 58.8594 187.283V192H57.3965V187.461C57.3965 186.367 56.8086 185.738 55.8242 185.738C54.7988 185.738 54.0469 186.408 54.0469 187.598ZM63.7676 192.15C61.6621 192.15 60.2949 190.619 60.2949 188.322C60.2949 186.012 61.6621 184.48 63.7676 184.48C65.8594 184.48 67.2266 186.012 67.2266 188.322C67.2266 190.619 65.8594 192.15 63.7676 192.15ZM63.7676 190.934C65.1074 190.934 65.75 189.744 65.75 188.322C65.75 186.9 65.1074 185.684 63.7676 185.684C62.4004 185.684 61.7578 186.9 61.7578 188.322C61.7578 189.744 62.4004 190.934 63.7676 190.934ZM72.832 186.6C72.6953 186.012 72.2305 185.629 71.4238 185.629C70.5898 185.629 69.9883 186.066 70.002 186.627C69.9883 187.064 70.3438 187.379 71.1641 187.57L72.3398 187.844C73.707 188.145 74.3633 188.801 74.377 189.854C74.3633 191.193 73.2422 192.15 71.3418 192.15C69.5645 192.15 68.498 191.357 68.3203 189.977H69.8105C69.9336 190.646 70.4531 190.975 71.3281 190.975C72.2715 190.975 72.873 190.592 72.8867 189.963C72.873 189.484 72.5176 189.17 71.7383 188.992L70.5762 188.746C69.2363 188.445 68.5391 187.734 68.5391 186.709C68.5391 185.383 69.6875 184.48 71.4102 184.48C73.0645 184.48 74.0898 185.328 74.2402 186.6H72.832ZM79.2715 184.576V185.738H77.7539V189.812C77.7539 190.646 78.1777 190.797 78.6426 190.811C78.8477 190.811 79.1758 190.783 79.3809 190.77V192.041C79.1758 192.068 78.8613 192.096 78.4648 192.096C77.3164 192.096 76.291 191.467 76.3047 190.113V185.738H75.2109V184.576H76.3047V182.799H77.7539V184.576H79.2715ZM81.6504 192.096C81.1172 192.096 80.666 191.658 80.6797 191.125C80.666 190.592 81.1172 190.154 81.6504 190.154C82.1699 190.154 82.6211 190.592 82.6211 191.125C82.6211 191.658 82.1699 192.096 81.6504 192.096ZM81.6504 186.695C81.1172 186.695 80.666 186.258 80.6797 185.725C80.666 185.191 81.1172 184.754 81.6504 184.754C82.1699 184.754 82.6211 185.191 82.6211 185.725C82.6211 186.258 82.1699 186.695 81.6504 186.695ZM87.8301 192.137C85.6836 192.137 84.1797 190.975 84.1934 189.361C84.1797 188.09 85.0957 187.051 86.2578 186.873V186.818C85.2461 186.586 84.5625 185.684 84.5625 184.604C84.5625 183.086 85.9434 181.965 87.8301 181.965C89.7031 181.965 91.0703 183.086 91.084 184.604C91.0703 185.684 90.3867 186.586 89.3887 186.818V186.873C90.5371 187.051 91.4531 188.09 91.4668 189.361C91.4531 190.975 89.9492 192.137 87.8301 192.137ZM87.8301 190.893C89.1152 190.893 89.9355 190.223 89.9355 189.252C89.9355 188.227 89.0469 187.488 87.8301 187.488C86.5996 187.488 85.6973 188.227 85.7246 189.252C85.6973 190.223 86.5176 190.893 87.8301 190.893ZM87.8301 186.299C88.8691 186.299 89.6074 185.67 89.6074 184.74C89.6074 183.824 88.8828 183.195 87.8301 183.195C86.7363 183.195 86.0254 183.811 86.0254 184.74C86.0254 185.67 86.7773 186.299 87.8301 186.299ZM96.4844 192.137C94.3379 192.137 92.834 190.975 92.8477 189.361C92.834 188.09 93.75 187.051 94.9121 186.873V186.818C93.9004 186.586 93.2168 185.684 93.2168 184.604C93.2168 183.086 94.5977 181.965 96.4844 181.965C98.3574 181.965 99.7246 183.086 99.7383 184.604C99.7246 185.684 99.041 186.586 98.043 186.818V186.873C99.1914 187.051 100.107 188.09 100.121 189.361C100.107 190.975 98.6035 192.137 96.4844 192.137ZM96.4844 190.893C97.7695 190.893 98.5898 190.223 98.5898 189.252C98.5898 188.227 97.7012 187.488 96.4844 187.488C95.2539 187.488 94.3516 188.227 94.3789 189.252C94.3516 190.223 95.1719 190.893 96.4844 190.893ZM96.4844 186.299C97.5234 186.299 98.2617 185.67 98.2617 184.74C98.2617 183.824 97.5371 183.195 96.4844 183.195C95.3906 183.195 94.6797 183.811 94.6797 184.74C94.6797 185.67 95.4316 186.299 96.4844 186.299ZM105.139 192.137C102.992 192.137 101.488 190.975 101.502 189.361C101.488 188.09 102.404 187.051 103.566 186.873V186.818C102.555 186.586 101.871 185.684 101.871 184.604C101.871 183.086 103.252 181.965 105.139 181.965C107.012 181.965 108.379 183.086 108.393 184.604C108.379 185.684 107.695 186.586 106.697 186.818V186.873C107.846 187.051 108.762 188.09 108.775 189.361C108.762 190.975 107.258 192.137 105.139 192.137ZM105.139 190.893C106.424 190.893 107.244 190.223 107.244 189.252C107.244 188.227 106.355 187.488 105.139 187.488C103.908 187.488 103.006 188.227 103.033 189.252C103.006 190.223 103.826 190.893 105.139 190.893ZM105.139 186.299C106.178 186.299 106.916 185.67 106.916 184.74C106.916 183.824 106.191 183.195 105.139 183.195C104.045 183.195 103.334 183.811 103.334 184.74C103.334 185.67 104.086 186.299 105.139 186.299ZM113.793 192.137C111.646 192.137 110.143 190.975 110.156 189.361C110.143 188.09 111.059 187.051 112.221 186.873V186.818C111.209 186.586 110.525 185.684 110.525 184.604C110.525 183.086 111.906 181.965 113.793 181.965C115.666 181.965 117.033 183.086 117.047 184.604C117.033 185.684 116.35 186.586 115.352 186.818V186.873C116.5 187.051 117.416 188.09 117.43 189.361C117.416 190.975 115.912 192.137 113.793 192.137ZM113.793 190.893C115.078 190.893 115.898 190.223 115.898 189.252C115.898 188.227 115.01 187.488 113.793 187.488C112.562 187.488 111.66 188.227 111.688 189.252C111.66 190.223 112.48 190.893 113.793 190.893ZM113.793 186.299C114.832 186.299 115.57 185.67 115.57 184.74C115.57 183.824 114.846 183.195 113.793 183.195C112.699 183.195 111.988 183.811 111.988 184.74C111.988 185.67 112.74 186.299 113.793 186.299ZM132.154 180.912V193.189H130.855V180.912H132.154ZM128.408 182.02V186.49H124.006V189.17C125.988 189.163 127.725 189.074 129.775 188.732L129.898 189.799C127.725 190.168 125.879 190.25 123.719 190.25H122.68V185.451H127.082V183.072H122.666V182.02H128.408ZM143.625 180.912V185.656H145.594V186.723H143.625V193.189H142.326V180.912H143.625ZM140.33 182.088V183.141H135.9V189.061C137.958 189.054 139.503 188.965 141.246 188.65L141.41 189.744C139.496 190.086 137.869 190.154 135.586 190.141H134.602V182.088H140.33ZM156.326 180.912V193.189H155.027V180.912H156.326ZM149.777 181.828C151.596 181.828 152.936 183.496 152.936 186.121C152.936 188.76 151.596 190.428 149.777 190.428C147.932 190.428 146.605 188.76 146.605 186.121C146.605 183.496 147.932 181.828 149.777 181.828ZM149.777 182.99C148.643 182.99 147.863 184.193 147.863 186.121C147.863 188.062 148.643 189.266 149.777 189.266C150.898 189.266 151.678 188.062 151.678 186.121C151.678 184.193 150.898 182.99 149.777 182.99ZM168.727 189.115V193.162H167.441V190.154H160.414V189.115H168.727ZM163.162 181.842V185.342H160.086V186.969C161.59 186.955 162.718 186.887 164.064 186.613L164.201 187.666C162.684 187.953 161.426 188.021 159.635 188.008H158.828V184.385H161.918V182.867H158.801V181.842H163.162ZM168.727 180.926V188.541H167.496V180.926H168.727ZM166.279 181.158V188.473H165.035V185.041H163.627V183.988H165.035V181.158H166.279ZM180.32 187.434V188.473H171.789V181.924H180.197V182.977H173.102V184.631H179.938V185.656H173.102V187.434H180.32ZM181.592 190.551V191.617H170.381V190.551H181.592ZM192.023 180.912V185.793H193.924V186.873H192.023V193.148H190.725V180.912H192.023ZM188.824 182.197C188.811 185.738 187.252 188.896 183.219 190.893L182.494 189.881C185.563 188.35 187.231 186.135 187.498 183.277H183.109V182.197H188.824ZM209.195 187.939V188.992H204.191V193.148H202.92V188.992H197.984V187.939H209.195ZM207.787 181.568V186.381H199.393V181.568H207.787ZM200.664 182.607V185.369H206.488V182.607H200.664ZM214.596 184.029C214.582 186.271 215.936 188.514 217.836 189.361L217.057 190.387C215.648 189.717 214.534 188.343 213.967 186.668C213.393 188.459 212.265 189.942 210.795 190.66L210.002 189.566C211.93 188.705 213.283 186.367 213.283 184.029V181.938H214.596V184.029ZM220.242 180.912V193.189H218.943V180.912H220.242ZM229.498 186.094V187.16H226.914V189.43C228.049 189.375 229.19 189.3 230.264 189.184L230.359 190.141C227.666 190.551 224.754 190.578 222.43 190.592L222.266 189.512C223.298 189.512 224.439 189.505 225.615 189.471V187.16H223.154V182.047H229.443V183.1H224.439V186.094H229.498ZM232.328 180.912V193.189H231.029V180.912H232.328ZM237.619 181.828C239.28 181.828 240.497 183.236 240.695 185.506H243.225V180.912H244.51V193.189H243.225V186.559H240.709C240.565 188.944 239.321 190.428 237.619 190.428C235.787 190.428 234.502 188.76 234.516 186.121C234.502 183.496 235.787 181.828 237.619 181.828ZM237.619 182.99C236.512 182.99 235.746 184.193 235.746 186.121C235.746 188.062 236.512 189.266 237.619 189.266C238.727 189.266 239.492 188.062 239.492 186.121C239.492 184.193 238.727 182.99 237.619 182.99ZM258.975 187.051C258.975 190.209 257.074 192.137 254.518 192.137C251.934 192.137 250.047 190.209 250.047 187.051C250.047 183.879 251.934 181.965 254.518 181.965C257.074 181.965 258.975 183.879 258.975 187.051ZM257.484 187.051C257.484 184.645 256.213 183.346 254.518 183.346C252.809 183.346 251.537 184.645 251.537 187.051C251.537 189.457 252.809 190.756 254.518 190.756C256.213 190.756 257.484 189.457 257.484 187.051ZM261.012 192H259.412L262.967 182.102H264.703L268.271 192H266.672L265.77 189.389H261.914L261.012 192ZM262.352 188.131H265.332L263.869 183.906H263.801L262.352 188.131ZM274.123 188.91V184.576H275.572V192H274.15V190.715H274.068C273.727 191.508 272.961 192.096 271.854 192.096C270.418 192.096 269.406 191.139 269.406 189.293V184.576H270.869V189.115C270.869 190.127 271.484 190.77 272.373 190.77C273.18 190.77 274.123 190.182 274.123 188.91ZM280.822 184.576V185.738H279.305V189.812C279.305 190.646 279.729 190.797 280.193 190.811C280.398 190.811 280.727 190.783 280.932 190.77V192.041C280.727 192.068 280.412 192.096 280.016 192.096C278.867 192.096 277.842 191.467 277.855 190.113V185.738H276.762V184.576H277.855V182.799H279.305V184.576H280.822ZM283.871 187.598V192H282.408V182.102H283.844V185.793H283.939C284.295 184.986 284.979 184.48 286.141 184.48C287.672 184.48 288.684 185.424 288.684 187.283V192H287.221V187.461C287.221 186.367 286.633 185.738 285.648 185.738C284.623 185.738 283.871 186.408 283.871 187.598ZM303.586 180.926V189.826H302.287V180.926H303.586ZM303.955 191.85V192.902H295.574V188.924H296.887V191.85H303.955ZM296.941 181.746C298.787 181.746 300.195 183.004 300.195 184.781C300.195 186.586 298.787 187.83 296.941 187.83C295.096 187.83 293.674 186.586 293.674 184.781C293.674 183.004 295.096 181.746 296.941 181.746ZM296.941 182.881C295.793 182.881 294.945 183.66 294.945 184.781C294.945 185.93 295.793 186.695 296.941 186.695C298.062 186.695 298.924 185.93 298.924 184.781C298.924 183.66 298.062 182.881 296.941 182.881ZM316.697 186.682V187.734H305.527V186.682H316.697ZM311.105 188.678C313.744 188.678 315.33 189.498 315.33 190.92C315.33 192.342 313.744 193.148 311.105 193.135C308.453 193.148 306.854 192.342 306.854 190.92C306.854 189.498 308.453 188.678 311.105 188.678ZM311.105 189.689C309.232 189.703 308.166 190.127 308.166 190.92C308.166 191.699 309.232 192.109 311.105 192.109C312.951 192.109 314.031 191.699 314.031 190.92C314.031 190.127 312.951 189.703 311.105 189.689ZM315.699 181.514V182.58H311.98C312.124 183.77 313.86 184.781 316.123 185.014L315.658 186.039C313.539 185.793 311.782 184.897 311.119 183.605C310.436 184.897 308.686 185.793 306.566 186.039L306.115 185.014C308.337 184.781 310.087 183.776 310.244 182.58H306.553V181.514H315.699ZM331.654 182.717V183.77H321.578V182.717H325.98V181.131H327.266V182.717H331.654ZM332.256 190.66V191.727H321.045V190.66H332.256ZM326.623 184.494C329.111 184.48 330.697 185.396 330.697 186.928C330.697 188.445 329.111 189.361 326.623 189.361C324.107 189.361 322.535 188.445 322.535 186.928C322.535 185.396 324.107 184.48 326.623 184.494ZM326.623 185.533C324.887 185.533 323.834 186.053 323.848 186.928C323.834 187.803 324.887 188.322 326.623 188.322C328.318 188.322 329.371 187.803 329.371 186.928C329.371 186.053 328.318 185.533 326.623 185.533ZM344.342 187.188V188.227H333.131V187.188H344.342ZM342.934 181.186V184.207H335.852V185.26H343.18V186.258H334.566V183.25H341.635V182.211H334.539V181.186H342.934ZM342.947 189.225V193.012H334.621V189.225H342.947ZM335.906 190.264V191.959H341.662V190.264H335.906ZM355.389 180.912V193.189H354.09V180.912H355.389ZM348.84 181.828C350.658 181.828 351.998 183.496 351.998 186.121C351.998 188.76 350.658 190.428 348.84 190.428C346.994 190.428 345.668 188.76 345.668 186.121C345.668 183.496 346.994 181.828 348.84 181.828ZM348.84 182.99C347.705 182.99 346.926 184.193 346.926 186.121C346.926 188.062 347.705 189.266 348.84 189.266C349.961 189.266 350.74 188.062 350.74 186.121C350.74 184.193 349.961 182.99 348.84 182.99ZM371.932 186.586V187.639H366.982V188.814C369.231 188.938 370.564 189.696 370.564 190.975C370.564 192.369 368.979 193.148 366.34 193.135C363.674 193.148 362.088 192.369 362.088 190.975C362.088 189.696 363.421 188.938 365.697 188.814V187.639H360.762V186.586H371.932ZM366.34 189.799C364.467 189.799 363.4 190.223 363.4 190.975C363.4 191.713 364.467 192.15 366.34 192.137C368.186 192.15 369.266 191.713 369.266 190.975C369.266 190.223 368.186 189.799 366.34 189.799ZM370.934 181.473V182.512H367.215C367.399 183.694 369.122 184.699 371.357 184.918L370.893 185.943C368.773 185.697 367.017 184.802 366.354 183.496C365.67 184.802 363.92 185.697 361.801 185.943L361.35 184.918C363.551 184.699 365.28 183.694 365.465 182.512H361.787V181.473H370.934ZM32.0762 200.898V204.453H33.8672V205.533H32.0762V209.771H30.7773V200.898H32.0762ZM28.4668 201.951V203.004H24.2832V206.572C26.6689 206.579 28.0156 206.504 29.5469 206.189L29.6973 207.242C28.043 207.57 26.5938 207.652 23.9688 207.652H22.998V201.951H28.4668ZM32.5957 211.85V212.902H24.3105V208.855H25.6094V211.85H32.5957ZM41.8516 206.094V207.16H39.2676V209.43C40.4023 209.375 41.5439 209.3 42.6172 209.184L42.7129 210.141C40.0195 210.551 37.1074 210.578 34.7832 210.592L34.6191 209.512C35.6514 209.512 36.793 209.505 37.9688 209.471V207.16H35.5078V202.047H41.7969V203.1H36.793V206.094H41.8516ZM44.6816 200.912V213.189H43.3828V200.912H44.6816ZM56.5625 204.494V205.533H48.127V201.35H49.4121V204.494H56.5625ZM57.8477 207.078V208.117H46.6367V207.078H57.8477ZM56.6445 211.809V212.875H48.0312V209.279H49.3301V211.809H56.6445ZM72.3262 200.926V207.857H71.0273V200.926H72.3262ZM72.3262 208.514V213.012H64.2734V208.514H72.3262ZM65.5586 209.553V211.959H71.0547V209.553H65.5586ZM66.625 202.58C66.6113 204.234 67.8008 205.725 69.6602 206.354L69.0176 207.352C67.5957 206.88 66.5293 205.909 65.9688 204.645C65.4219 205.991 64.335 207.064 62.8652 207.584L62.2227 206.559C64.1367 205.916 65.2988 204.289 65.2988 202.58V201.391H66.625V202.58ZM83.8926 200.912V203.934H85.6699V205.027H83.8926V208.076H82.5938V200.912H83.8926ZM80.502 201.664C80.502 204.822 78.3691 207.023 74.7324 207.967L74.1992 206.969C77.1387 206.203 78.8818 204.651 79.1074 202.717H74.7871V201.664H80.502ZM83.8926 208.609V213.162H82.5938V209.662H75.7988V208.609H83.8926ZM95.9922 200.926V204.863H97.7695V205.943H95.9922V210.086H94.6934V200.926H95.9922ZM93.6816 202.348V203.4H86.3809V202.348H89.3887V200.912H90.6875V202.348H93.6816ZM90.0312 203.988C91.7949 203.988 92.998 204.904 92.998 206.299C92.998 207.693 91.7949 208.596 90.0312 208.596C88.2539 208.596 87.0508 207.693 87.0508 206.299C87.0508 204.904 88.2539 203.988 90.0312 203.988ZM90.0312 204.986C88.9922 204.986 88.2949 205.492 88.3086 206.299C88.2949 207.092 88.9922 207.584 90.0312 207.584C91.0703 207.584 91.7676 207.092 91.7812 206.299C91.7676 205.492 91.0703 204.986 90.0312 204.986ZM96.5117 211.85V212.902H88.2266V209.361H89.5254V211.85H96.5117ZM113.096 210.551V211.631H101.885V210.551H106.82V207.721H103.17V201.896H111.756V207.721H108.105V210.551H113.096ZM104.428 202.936V206.695H110.484V202.936H104.428ZM123.527 200.912V205.656H125.496V206.75H123.527V213.162H122.229V200.912H123.527ZM115.734 201.938V205.082H118.975V201.938H120.26V210.25H114.449V201.938H115.734ZM115.734 209.184H118.975V206.107H115.734V209.184ZM129.557 201.322C131.402 201.336 132.756 202.471 132.77 204.07C132.756 205.684 131.402 206.805 129.557 206.805C127.697 206.805 126.33 205.684 126.33 204.07C126.33 202.471 127.697 201.336 129.557 201.322ZM129.557 202.416C128.422 202.402 127.588 203.072 127.602 204.07C127.588 205.082 128.422 205.752 129.557 205.752C130.678 205.752 131.512 205.082 131.512 204.07C131.512 203.072 130.678 202.402 129.557 202.416ZM136.242 200.912V207.146H134.943V200.912H136.242ZM136.242 207.707V210.797H129.488V211.973H136.652V213.012H128.23V209.826H134.957V208.746H128.189V207.707H136.242ZM152.074 200.912V208.486H150.83V200.912H152.074ZM149.805 201.117V208.459H148.574V207.844H146.51V206.941H148.574V201.117H149.805ZM141.533 205.602C143.188 205.602 145.936 205.574 147.959 205.246L148.055 206.135C147.255 206.299 146.373 206.408 145.498 206.477V208.432H144.24V206.545C143.276 206.593 142.374 206.6 141.656 206.6L141.533 205.602ZM144.924 208.91V209.949H150.789V208.91H152.074V213.012H143.652V208.91H144.924ZM144.924 211.986H150.789V210.961H144.924V211.986ZM144.814 201.336C146.414 201.35 147.494 202.033 147.494 203.154C147.494 204.275 146.414 204.986 144.814 204.986C143.201 204.986 142.135 204.275 142.135 203.154C142.135 202.033 143.201 201.35 144.814 201.336ZM144.814 202.266C143.885 202.252 143.311 202.58 143.311 203.154C143.311 203.729 143.885 204.057 144.814 204.057C145.73 204.057 146.332 203.729 146.332 203.154C146.332 202.58 145.73 202.252 144.814 202.266ZM167.729 202.635V203.688H157.652V202.635H162.055V201.09H163.34V202.635H167.729ZM168.33 210.729V211.781H157.119V210.729H162.055V209.102C159.908 208.972 158.609 208.124 158.609 206.764C158.609 205.287 160.168 204.426 162.697 204.426C165.199 204.426 166.771 205.287 166.771 206.764C166.771 208.124 165.466 208.972 163.34 209.102V210.729H168.33ZM162.697 205.451C160.947 205.451 159.922 205.916 159.936 206.764C159.922 207.611 160.947 208.076 162.697 208.09C164.42 208.076 165.445 207.611 165.445 206.764C165.445 205.916 164.42 205.451 162.697 205.451ZM178.857 200.912V205.109H180.607V206.189H178.857V210.482H177.559V200.912H178.857ZM179.295 211.85V212.902H170.941V209.84H172.24V211.85H179.295ZM169.137 208.104C170.08 208.104 171.181 208.097 172.336 208.049V207.201C170.941 207.051 170.053 206.374 170.066 205.369C170.053 204.18 171.215 203.469 172.979 203.482C174.729 203.469 175.891 204.18 175.891 205.369C175.891 206.367 175.016 207.044 173.635 207.201V207.994C174.729 207.933 175.836 207.837 176.861 207.68L176.971 208.596C174.359 209.088 171.406 209.129 169.273 209.143L169.137 208.104ZM176.52 202.047V203.004H169.451V202.047H172.336V200.871H173.635V202.047H176.52ZM172.979 204.371C171.926 204.371 171.297 204.74 171.297 205.369C171.297 205.971 171.926 206.34 172.979 206.34C174.018 206.34 174.646 205.971 174.646 205.369C174.646 204.74 174.018 204.371 172.979 204.371ZM185.666 202.744C185.666 204.467 186.773 205.998 188.633 206.6L187.922 207.611C186.575 207.126 185.584 206.183 185.051 204.959C184.518 206.36 183.451 207.447 181.975 207.98L181.277 206.941C183.232 206.271 184.367 204.645 184.381 202.799V201.596H185.666V202.744ZM191.531 200.912V208.145H190.232V204.467H187.648V203.4H190.232V200.912H191.531ZM187.43 208.486C190 208.486 191.572 209.334 191.572 210.824C191.572 212.301 190 213.148 187.43 213.135C184.859 213.148 183.273 212.301 183.287 210.824C183.273 209.334 184.859 208.486 187.43 208.486ZM187.43 209.498C185.639 209.498 184.572 209.977 184.572 210.824C184.572 211.645 185.639 212.109 187.43 212.109C189.221 212.109 190.287 211.645 190.287 210.824C190.287 209.977 189.221 209.498 187.43 209.498ZM206.98 200.912V213.189H205.682V200.912H206.98ZM200.432 201.828C202.25 201.828 203.59 203.496 203.59 206.121C203.59 208.76 202.25 210.428 200.432 210.428C198.586 210.428 197.26 208.76 197.26 206.121C197.26 203.496 198.586 201.828 200.432 201.828ZM200.432 202.99C199.297 202.99 198.518 204.193 198.518 206.121C198.518 208.062 199.297 209.266 200.432 209.266C201.553 209.266 202.332 208.062 202.332 206.121C202.332 204.193 201.553 202.99 200.432 202.99ZM220.133 207.83V208.896H217.385V213.23H216.086V208.896H213.01V213.23H211.711V208.896H208.922V207.83H220.133ZM215.211 201.992C215.197 203.633 217.221 205.191 219.6 205.52L219.08 206.586C217.098 206.244 215.334 205.191 214.541 203.742C213.734 205.198 211.984 206.244 209.988 206.586L209.455 205.52C211.848 205.178 213.844 203.646 213.857 201.992V201.322H215.211V201.992ZM230.578 200.912V205.793H232.479V206.873H230.578V213.148H229.279V200.912H230.578ZM227.379 202.197C227.365 205.738 225.807 208.896 221.773 210.893L221.049 209.881C224.118 208.35 225.786 206.135 226.053 203.277H221.664V202.197H227.379ZM238.303 201.432V203.1H241.516V201.432H242.801V206.777H237.031V201.432H238.303ZM238.303 205.738H241.516V204.098H238.303V205.738ZM246.178 200.912V203.482H247.955V204.535H246.178V207.215H244.879V200.912H246.178ZM246.178 207.748V210.838H239.561V212H246.602V213.039H238.289V209.881H244.893V208.773H238.262V207.748H246.178ZM258.865 200.926V210.018H257.566V207.201H254.436V206.135H257.566V204.453H254.613C253.731 206.36 251.893 207.796 249.404 208.582L248.844 207.557C251.633 206.654 253.479 204.993 253.752 202.908H249.473V201.869H255.16C255.16 202.402 255.092 202.915 254.969 203.4H257.566V200.926H258.865ZM259.18 211.85V212.902H250.977V209.115H252.289V211.85H259.18ZM268.053 206.094V207.16H265.469V209.43C266.604 209.375 267.745 209.3 268.818 209.184L268.914 210.141C266.221 210.551 263.309 210.578 260.984 210.592L260.82 209.512C261.853 209.512 262.994 209.505 264.17 209.471V207.16H261.709V202.047H267.998V203.1H262.994V206.094H268.053ZM270.883 200.912V213.189H269.584V200.912H270.883ZM277.199 208.992C277.199 210.052 277.719 211.166 278.84 211.85C279.961 211.111 280.494 209.922 280.494 208.992V208.336H281.766V208.992C281.766 210.264 282.6 211.508 284.227 212.027L283.557 212.998C282.354 212.567 281.533 211.747 281.109 210.729C280.727 211.727 279.988 212.636 278.854 213.107C277.691 212.663 276.953 211.795 276.57 210.783C276.126 211.754 275.319 212.567 274.164 212.998L273.535 212.027C275.094 211.48 275.941 210.182 275.955 208.992V208.336H277.199V208.992ZM276.242 201.582C277.821 201.582 279.086 202.519 279.373 203.906H281.766V200.912H283.064V207.857H281.766V204.973H279.387C279.134 206.401 277.855 207.365 276.242 207.365C274.396 207.365 273.043 206.176 273.043 204.48C273.043 202.785 274.396 201.582 276.242 201.582ZM276.242 202.676C275.107 202.676 274.273 203.4 274.287 204.48C274.273 205.533 275.107 206.285 276.242 206.285C277.35 206.285 278.184 205.533 278.184 204.48C278.184 203.4 277.35 202.676 276.242 202.676ZM287.617 208.254V209.553H293.373V208.254H294.672V213.012H286.332V208.254H287.617ZM287.617 211.973H293.373V210.564H287.617V211.973ZM296.121 206.408V207.488H284.951V206.408H296.121ZM291.199 201.568C291.199 202.977 293.154 204.344 295.506 204.631L295.041 205.656C293.052 205.376 291.322 204.439 290.543 203.141C289.743 204.446 288.007 205.376 286.045 205.656L285.553 204.631C287.932 204.33 289.873 203.018 289.873 201.568V201.049H291.199V201.568ZM307.223 200.912V213.162H305.924V200.912H307.223ZM299.088 202.102V208.924C300.872 208.91 302.752 208.767 304.721 208.363L304.898 209.457C302.725 209.895 300.756 210.045 298.828 210.045H297.803V202.102H299.088ZM318.693 200.912V205.656H320.662V206.723H318.693V213.189H317.395V200.912H318.693ZM315.398 202.088V203.141H310.969V209.061C313.026 209.054 314.571 208.965 316.314 208.65L316.479 209.744C314.564 210.086 312.938 210.154 310.654 210.141H309.67V202.088H315.398ZM322.645 212.096C322.111 212.096 321.66 211.658 321.674 211.125C321.66 210.592 322.111 210.154 322.645 210.154C323.164 210.154 323.615 210.592 323.615 211.125C323.615 211.658 323.164 212.096 322.645 212.096Z" fill="#525252"/>
</g>
<g clip-path="url(#clip3_12_5)">
<g filter="url(#filter12_dd_12_5)">
<path d="M22 253C22 246.373 27.3726 241 34 241H46C52.6274 241 58 246.373 58 253C58 259.627 52.6274 265 46 265H34C27.3726 265 22 259.627 22 253Z" fill="#F2F5F4" shape-rendering="crispEdges"/>
<path d="M30.7148 257V250.637H32.2148V257H30.7148ZM31.4766 249.734C31.0078 249.734 30.6094 249.371 30.6094 248.914C30.6094 248.469 31.0078 248.105 31.4766 248.105C31.957 248.105 32.3438 248.469 32.3438 248.914C32.3438 249.371 31.957 249.734 31.4766 249.734ZM41.2852 252.758C41.2852 255.5 39.6211 257.117 37.3945 257.117C35.168 257.117 33.5039 255.488 33.5039 252.758C33.5039 250.016 35.168 248.398 37.3945 248.398C39.6211 248.398 41.2852 250.016 41.2852 252.758ZM39.75 252.758C39.75 250.824 38.7773 249.77 37.3945 249.77C36.0117 249.77 35.0391 250.824 35.0391 252.758C35.0391 254.691 36.0117 255.746 37.3945 255.746C38.7773 255.746 39.75 254.691 39.75 252.758ZM47.2617 250.848C47.1914 250.121 46.5703 249.699 45.6562 249.699C44.6953 249.699 44.1094 250.168 44.1094 250.801C44.1094 251.516 44.8594 251.809 45.5625 251.973L46.3594 252.184C47.625 252.477 48.8438 253.145 48.8438 254.621C48.8438 256.109 47.6719 257.129 45.6328 257.129C43.6523 257.129 42.4102 256.18 42.3398 254.504H43.8398C43.9102 255.395 44.6602 255.828 45.6211 255.828C46.6289 255.828 47.3203 255.336 47.3203 254.609C47.3203 253.941 46.6992 253.66 45.7852 253.426L44.8242 253.18C43.4297 252.816 42.5625 252.113 42.5625 250.895C42.5625 249.395 43.8984 248.398 45.6797 248.398C47.4844 248.398 48.7031 249.418 48.7266 250.848H47.2617Z" fill="#4D5955"/>
</g>
<g filter="url(#filter13_dd_12_5)">
<path d="M66 253C66 246.373 71.3726 241 78 241H109C115.627 241 121 246.373 121 253C121 259.627 115.627 265 109 265H78C71.3726 265 66 259.627 66 253Z" fill="#F2F5F4" shape-rendering="crispEdges"/>
<path d="M76.5781 257L74.1875 248.516H75.8281L77.3633 254.762H77.4453L79.0742 248.516H80.5742L82.2148 254.773H82.2852L83.8203 248.516H85.4609L83.0703 257H81.5586L79.8594 251.035H79.8008L78.0898 257H76.5781ZM88.5312 257.129C86.6094 257.129 85.4375 255.852 85.4375 253.859C85.4375 251.891 86.6328 250.555 88.4492 250.555C90.0078 250.555 91.3555 251.527 91.3555 253.766V254.234H86.9141C86.9316 255.318 87.5703 255.957 88.543 255.957C89.1992 255.957 89.6445 255.676 89.832 255.301H91.2969C91.0273 256.402 90.0078 257.129 88.5312 257.129ZM86.9258 253.215H89.9258C89.9141 252.348 89.3398 251.715 88.4727 251.715C87.5703 251.715 86.9727 252.4 86.9258 253.215ZM92.5859 257V248.516H94.0859V251.68H94.1445C94.3789 251.223 94.8359 250.555 95.9609 250.555C97.4375 250.555 98.5977 251.703 98.5977 253.824C98.5977 255.922 97.4609 257.117 95.9727 257.117C94.8711 257.117 94.3789 256.461 94.1445 255.992H94.0508V257H92.5859ZM94.0508 253.812C94.0508 255.055 94.5898 255.887 95.5508 255.887C96.5469 255.887 97.0742 255.02 97.0742 253.812C97.0742 252.629 96.5586 251.773 95.5508 251.773C94.5898 251.773 94.0508 252.582 94.0508 253.812ZM99.7695 257V248.516H101.27V253.191H101.375L103.66 250.637H105.406L102.945 253.379L105.559 257H103.777L101.82 254.27L101.27 254.855V257H99.7695ZM106.297 257V250.637H107.797V257H106.297ZM107.059 249.734C106.59 249.734 106.191 249.371 106.191 248.914C106.191 248.469 106.59 248.105 107.059 248.105C107.539 248.105 107.926 248.469 107.926 248.914C107.926 249.371 107.539 249.734 107.059 249.734ZM112.402 250.637V251.785H111.148V255.09C111.148 255.699 111.453 255.828 111.828 255.828C112.004 255.828 112.297 255.816 112.484 255.805V257.023C112.309 257.059 112.016 257.082 111.641 257.082C110.516 257.082 109.648 256.531 109.66 255.336V251.785H108.746V250.637H109.66V249.113H111.148V250.637H112.402Z" fill="#4D5955"/>
</g>
<g filter="url(#filter14_dd_12_5)">
<path d="M129 253C129 246.373 134.373 241 141 241H186C192.627 241 198 246.373 198 253C198 259.627 192.627 265 186 265H141C134.373 265 129 259.627 129 253Z" fill="#F2F5F4" shape-rendering="crispEdges"/>
<path d="M139.578 257L137.188 248.516H138.828L140.363 254.762H140.445L142.074 248.516H143.574L145.215 254.773H145.285L146.82 248.516H148.461L146.07 257H144.559L142.859 251.035H142.801L141.09 257H139.578ZM151.531 257.129C149.609 257.129 148.438 255.852 148.438 253.859C148.438 251.891 149.633 250.555 151.449 250.555C153.008 250.555 154.355 251.527 154.355 253.766V254.234H149.914C149.932 255.318 150.57 255.957 151.543 255.957C152.199 255.957 152.645 255.676 152.832 255.301H154.297C154.027 256.402 153.008 257.129 151.531 257.129ZM149.926 253.215H152.926C152.914 252.348 152.34 251.715 151.473 251.715C150.57 251.715 149.973 252.4 149.926 253.215ZM155.586 257V248.516H157.086V251.68H157.145C157.379 251.223 157.836 250.555 158.961 250.555C160.438 250.555 161.598 251.703 161.598 253.824C161.598 255.922 160.461 257.117 158.973 257.117C157.871 257.117 157.379 256.461 157.145 255.992H157.051V257H155.586ZM157.051 253.812C157.051 255.055 157.59 255.887 158.551 255.887C159.547 255.887 160.074 255.02 160.074 253.812C160.074 252.629 159.559 251.773 158.551 251.773C157.59 251.773 157.051 252.582 157.051 253.812ZM163.285 248.516L165.488 255.207H165.582L167.797 248.516H169.473L166.473 257H164.598L161.609 248.516H163.285ZM170.41 257V250.637H171.91V257H170.41ZM171.172 249.734C170.703 249.734 170.305 249.371 170.305 248.914C170.305 248.469 170.703 248.105 171.172 248.105C171.652 248.105 172.039 248.469 172.039 248.914C172.039 249.371 171.652 249.734 171.172 249.734ZM176.164 257.129C174.242 257.129 173.07 255.852 173.07 253.859C173.07 251.891 174.266 250.555 176.082 250.555C177.641 250.555 178.988 251.527 178.988 253.766V254.234H174.547C174.564 255.318 175.203 255.957 176.176 255.957C176.832 255.957 177.277 255.676 177.465 255.301H178.93C178.66 256.402 177.641 257.129 176.164 257.129ZM174.559 253.215H177.559C177.547 252.348 176.973 251.715 176.105 251.715C175.203 251.715 174.605 252.4 174.559 253.215ZM181.438 257L179.633 250.637H181.156L182.281 255.113H182.34L183.477 250.637H184.988L186.137 255.09H186.195L187.309 250.637H188.832L187.027 257H185.469L184.273 252.688H184.191L182.996 257H181.438Z" fill="#4D5955"/>
</g>
</g>
<path d="M22 299C22 292.373 27.3726 287 34 287H73C79.6274 287 85 292.373 85 299V313C85 319.627 79.6274 325 73 325H34C27.3726 325 22 319.627 22 313V299Z" fill="#F2F5F4"/>
<path d="M43.0938 300.508V306.941H41.9805V300.508H43.0938ZM39.7422 301.152V304.129H36.0273V305.441C37.8613 305.424 39.2148 305.371 40.8086 305.125L40.9492 306.027C39.2383 306.309 37.7969 306.355 35.8164 306.355H34.9375V303.273H38.6406V302.066H34.9141V301.152H39.7422ZM39.5898 307.141C41.8047 307.141 43.1641 307.832 43.1641 309.062C43.1641 310.27 41.8047 310.984 39.5898 310.973C37.3633 310.984 36.0156 310.27 36.0156 309.062C36.0156 307.832 37.3633 307.141 39.5898 307.141ZM39.5898 308.02C38.0312 308.02 37.1172 308.395 37.1172 309.062C37.1172 309.73 38.0312 310.094 39.5898 310.094C41.1484 310.094 42.0508 309.73 42.0508 309.062C42.0508 308.395 41.1484 308.02 39.5898 308.02ZM52.907 301.516V302.793C52.907 304.328 52.907 305.77 52.45 307.949L51.3484 307.844C51.5711 306.883 51.6883 306.039 51.7469 305.254L45.4422 305.594L45.3016 304.68L51.8055 304.434C51.823 303.871 51.823 303.332 51.8289 302.793V302.43H45.5945V301.516H52.907ZM54.032 308.676V309.59H44.4578V308.676H54.032Z" fill="#737373"/>
<path d="M69.5 306.583V310.083C69.5 310.393 69.3771 310.689 69.1583 310.908C68.9395 311.127 68.6428 311.25 68.3333 311.25H61.9167C61.6072 311.25 61.3105 311.127 61.0917 310.908C60.8729 310.689 60.75 310.393 60.75 310.083V303.667C60.75 303.357 60.8729 303.061 61.0917 302.842C61.3105 302.623 61.6072 302.5 61.9167 302.5H65.4167" stroke="#737373" stroke-width="1.45833" stroke-linecap="round" stroke-linejoin="round"/>
<path d="M67.75 300.75H71.25V304.25" stroke="#737373" stroke-width="1.45833" stroke-linecap="round" stroke-linejoin="round"/>
<path d="M64.8333 307.167L71.25 300.75" stroke="#737373" stroke-width="1.45833" stroke-linecap="round" stroke-linejoin="round"/>
<path d="M97 300C97 293.373 102.373 288 109 288H363C369.627 288 375 293.373 375 300V312C375 318.627 369.627 324 363 324H109C102.373 324 97 318.627 97 312V300Z" fill="#404040"/>
<path d="M177.043 303.59C177.043 305.254 178.133 307.105 179.727 307.855L179.094 308.723C177.916 308.154 176.984 306.971 176.516 305.594C176.029 307.1 175.045 308.395 173.844 308.992L173.188 308.113C174.781 307.352 175.941 305.371 175.941 303.59V302.477H173.574V301.551H179.328V302.477H177.043V303.59ZM181.566 300.496V304.656H183.254V305.594H181.566V310.996H180.453V300.496H181.566ZM186.657 303.367C186.657 305.043 187.36 306.836 188.766 307.691L188.145 308.547C187.161 307.955 186.493 306.906 186.141 305.688C185.749 307.023 185.028 308.16 184.009 308.781L183.317 307.949C184.805 307.059 185.579 305.207 185.579 303.414V301.457H186.657V303.367ZM192.493 300.496V310.996H191.427V300.496H192.493ZM190.313 300.695V310.48H189.259V305.113H187.63V304.188H189.259V300.695H190.313ZM202.224 300.496V310.996H201.111V300.496H202.224ZM200.091 302.16V303.062H193.763V302.16H196.353V300.602H197.478V302.16H200.091ZM196.939 303.824C198.474 303.824 199.587 304.832 199.587 306.262C199.587 307.703 198.474 308.699 196.939 308.711C195.416 308.699 194.302 307.703 194.302 306.262C194.302 304.832 195.416 303.824 196.939 303.824ZM196.939 304.738C196.025 304.738 195.357 305.359 195.357 306.262C195.357 307.176 196.025 307.785 196.939 307.773C197.853 307.785 198.521 307.176 198.521 306.262C198.521 305.359 197.853 304.738 196.939 304.738ZM215.839 308.77V309.695H206.23V308.77H210.46V306.613H207.331V301.211H208.445V303.016H213.601V301.211H214.702V306.613H211.562V308.77H215.839ZM208.445 305.711H213.601V303.918H208.445V305.711ZM225.031 300.496V310.996H223.906V300.496H225.031ZM221.902 301.621C221.902 304.691 220.59 307.363 216.992 309.086L216.406 308.184C219.201 306.854 220.561 304.961 220.777 302.512H216.91V301.621H221.902Z" fill="#F9FBFA"/>
<path d="M243 296.5H289C294.247 296.5 298.5 300.753 298.5 306C298.5 311.247 294.247 315.5 289 315.5H243C237.753 315.5 233.5 311.247 233.5 306C233.5 300.753 237.753 296.5 243 296.5Z" stroke="#C3E8DA"/>
<path d="M242.223 308.629V306.414H240.008V305.113H242.223V302.898H243.512V305.113H245.738V306.414H243.512V308.629H242.223ZM249.838 310.117C248.021 310.117 246.732 309.133 246.697 307.703H248.232C248.279 308.383 248.959 308.828 249.838 308.828C250.775 308.828 251.443 308.312 251.443 307.562C251.443 306.801 250.787 306.25 249.685 306.25H248.923V305.078H249.685C250.588 305.078 251.22 304.574 251.209 303.836C251.22 303.121 250.681 302.641 249.849 302.641C249.052 302.641 248.361 303.086 248.338 303.801H246.873C246.908 302.371 248.197 301.398 249.861 301.398C251.584 301.398 252.697 302.453 252.685 303.754C252.697 304.703 252.064 305.395 251.138 305.582V305.652C252.334 305.816 253.013 306.578 253.002 307.645C253.013 309.074 251.677 310.117 249.838 310.117ZM255.997 310V303.637H257.427V304.715H257.509C257.766 303.988 258.411 303.555 259.255 303.555C260.122 303.555 260.731 303.988 260.977 304.715H261.048C261.329 304.012 262.032 303.555 262.958 303.555C264.118 303.555 264.938 304.305 264.938 305.723V310H263.45V305.957C263.45 305.16 262.97 304.809 262.36 304.809C261.622 304.809 261.2 305.312 261.2 306.027V310H259.747V305.898C259.747 305.242 259.302 304.809 258.669 304.809C258.024 304.809 257.497 305.336 257.497 306.133V310H255.997ZM268.545 310.129C266.694 310.129 265.498 308.816 265.498 306.848C265.498 304.867 266.694 303.555 268.545 303.555C270.409 303.555 271.592 304.867 271.592 306.848C271.592 308.816 270.409 310.129 268.545 310.129ZM268.557 308.934C269.577 308.934 270.08 308.008 270.08 306.836C270.08 305.676 269.577 304.738 268.557 304.738C267.514 304.738 267.01 305.676 267.01 306.836C267.01 308.008 267.514 308.934 268.557 308.934ZM274.52 310.117C273.02 310.117 271.895 308.922 271.895 306.824C271.895 304.703 273.055 303.555 274.531 303.555C275.656 303.555 276.125 304.223 276.348 304.68H276.406V301.516H277.895V310H276.43V308.992H276.348C276.113 309.461 275.621 310.117 274.52 310.117ZM274.93 308.887C275.891 308.887 276.441 308.055 276.441 306.812C276.441 305.582 275.902 304.773 274.93 304.773C273.934 304.773 273.418 305.629 273.418 306.812C273.418 308.02 273.945 308.887 274.93 308.887ZM281.63 310.129C279.709 310.129 278.537 308.852 278.537 306.859C278.537 304.891 279.732 303.555 281.548 303.555C283.107 303.555 284.455 304.527 284.455 306.766V307.234H280.013C280.031 308.318 280.67 308.957 281.642 308.957C282.298 308.957 282.744 308.676 282.931 308.301H284.396C284.127 309.402 283.107 310.129 281.63 310.129ZM280.025 306.215H283.025C283.013 305.348 282.439 304.715 281.572 304.715C280.67 304.715 280.072 305.4 280.025 306.215ZM286.515 301.516V310H285.015V301.516H286.515ZM290.954 305.453C290.86 304.973 290.462 304.668 289.829 304.668C289.184 304.668 288.716 304.984 288.727 305.418C288.716 305.746 288.985 305.992 289.63 306.145L290.708 306.367C291.915 306.637 292.489 307.188 292.501 308.102C292.489 309.297 291.446 310.129 289.782 310.129C288.165 310.129 287.204 309.402 287.052 308.184H288.575C288.669 308.723 289.091 308.992 289.782 308.992C290.497 308.992 290.977 308.699 290.977 308.23C290.977 307.867 290.684 307.633 290.052 307.492L289.032 307.27C287.848 307.035 287.239 306.414 287.239 305.5C287.239 304.328 288.247 303.555 289.805 303.555C291.329 303.555 292.266 304.293 292.372 305.453H290.954Z" fill="#E0F7F4"/>
</g>
<defs>
<filter id="filter0_d_12_5" x="0" y="0" width="397" height="338" filterUnits="userSpaceOnUse" color-interpolation-filters="sRGB">
<feFlood flood-opacity="0" result="BackgroundImageFix"/>
<feColorMatrix in="SourceAlpha" type="matrix" values="0 0 0 0 0 0 0 0 0 0 0 0 0 0 0 0 0 0 127 0" result="hardAlpha"/>
<feOffset dy="1"/>
<feGaussianBlur stdDeviation="1"/>
<feComposite in2="hardAlpha" operator="out"/>
<feColorMatrix type="matrix" values="0 0 0 0 0 0 0 0 0 0 0 0 0 0 0 0 0 0 0.05 0"/>
<feBlend mode="normal" in2="BackgroundImageFix" result="effect1_dropShadow_12_5"/>
<feBlend mode="normal" in="SourceGraphic" in2="effect1_dropShadow_12_5" result="shape"/>
</filter>
<filter id="filter1_f_12_5" x="57.3401" y="16.428" width="7.25094" height="7.97879" filterUnits="userSpaceOnUse" color-interpolation-filters="sRGB">
<feFlood flood-opacity="0" result="BackgroundImageFix"/>
<feBlend mode="normal" in="SourceGraphic" in2="BackgroundImageFix" result="shape"/>
<feGaussianBlur stdDeviation="0.454154" result="effect1_foregroundBlur_12_5"/>
</filter>
<filter id="filter2_f_12_5" x="58.2304" y="6.56797" width="15.6679" height="15.8193" filterUnits="userSpaceOnUse" color-interpolation-filters="sRGB">
<feFlood flood-opacity="0" result="BackgroundImageFix"/>
<feBlend mode="normal" in="SourceGraphic" in2="BackgroundImageFix" result="shape"/>
<feGaussianBlur stdDeviation="2.19526" result="effect1_foregroundBlur_12_5"/>
</filter>
<filter id="filter3_f_12_5" x="57.1643" y="16.2019" width="14.6687" height="16.7848" filterUnits="userSpaceOnUse" color-interpolation-filters="sRGB">
<feFlood flood-opacity="0" result="BackgroundImageFix"/>
<feBlend mode="normal" in="SourceGraphic" in2="BackgroundImageFix" result="shape"/>
<feGaussianBlur stdDeviation="1.86628" result="effect1_foregroundBlur_12_5"/>
</filter>
<filter id="filter4_f_12_5" x="57.1643" y="16.2019" width="14.6687" height="16.7848" filterUnits="userSpaceOnUse" color-interpolation-filters="sRGB">
<feFlood flood-opacity="0" result="BackgroundImageFix"/>
<feBlend mode="normal" in="SourceGraphic" in2="BackgroundImageFix" result="shape"/>
<feGaussianBlur stdDeviation="1.86628" result="effect1_foregroundBlur_12_5"/>
</filter>
<filter id="filter5_f_12_5" x="57.3361" y="16.8538" width="14.7198" height="15.0473" filterUnits="userSpaceOnUse" color-interpolation-filters="sRGB">
<feFlood flood-opacity="0" result="BackgroundImageFix"/>
<feBlend mode="normal" in="SourceGraphic" in2="BackgroundImageFix" result="shape"/>
<feGaussianBlur stdDeviation="1.86628" result="effect1_foregroundBlur_12_5"/>
</filter>
<filter id="filter6_f_12_5" x="66.5077" y="11.8674" width="13.8676" height="13.6167" filterUnits="userSpaceOnUse" color-interpolation-filters="sRGB">
<feFlood flood-opacity="0" result="BackgroundImageFix"/>
<feBlend mode="normal" in="SourceGraphic" in2="BackgroundImageFix" result="shape"/>
<feGaussianBlur stdDeviation="1.77342" result="effect1_foregroundBlur_12_5"/>
</filter>
<filter id="filter7_f_12_5" x="53.877" y="10.9995" width="14.4251" height="14.54" filterUnits="userSpaceOnUse" color-interpolation-filters="sRGB">
<feFlood flood-opacity="0" result="BackgroundImageFix"/>
<feBlend mode="normal" in="SourceGraphic" in2="BackgroundImageFix" result="shape"/>
<feGaussianBlur stdDeviation="1.60726" result="effect1_foregroundBlur_12_5"/>
</filter>
<filter id="filter8_f_12_5" x="62.4965" y="12.8984" width="14.5621" height="14.3153" filterUnits="userSpaceOnUse" color-interpolation-filters="sRGB">
<feFlood flood-opacity="0" result="BackgroundImageFix"/>
<feBlend mode="normal" in="SourceGraphic" in2="BackgroundImageFix" result="shape"/>
<feGaussianBlur stdDeviation="1.43538" result="effect1_foregroundBlur_12_5"/>
</filter>
<filter id="filter9_f_12_5" x="63.5085" y="10.5868" width="10.3886" height="9.56509" filterUnits="userSpaceOnUse" color-interpolation-filters="sRGB">
<feFlood flood-opacity="0" result="BackgroundImageFix"/>
<feBlend mode="normal" in="SourceGraphic" in2="BackgroundImageFix" result="shape"/>
<feGaussianBlur stdDeviation="1.28437" result="effect1_foregroundBlur_12_5"/>
</filter>
<filter id="filter10_f_12_5" x="58.1337" y="8.22212" width="13.0812" height="12.7949" filterUnits="userSpaceOnUse" color-interpolation-filters="sRGB">
<feFlood flood-opacity="0" result="BackgroundImageFix"/>
<feBlend mode="normal" in="SourceGraphic" in2="BackgroundImageFix" result="shape"/>
<feGaussianBlur stdDeviation="1.0848" result="effect1_foregroundBlur_12_5"/>
</filter>
<filter id="filter11_f_12_5" x="58.3843" y="17.8702" width="10.2468" height="9.52116" filterUnits="userSpaceOnUse" color-interpolation-filters="sRGB">
<feFlood flood-opacity="0" result="BackgroundImageFix"/>
<feBlend mode="normal" in="SourceGraphic" in2="BackgroundImageFix" result="shape"/>
<feGaussianBlur stdDeviation="1.34271" result="effect1_foregroundBlur_12_5"/>
</filter>
<filter id="filter12_dd_12_5" x="19" y="239" width="42" height="30" filterUnits="userSpaceOnUse" color-interpolation-filters="sRGB">
<feFlood flood-opacity="0" result="BackgroundImageFix"/>
<feColorMatrix in="SourceAlpha" type="matrix" values="0 0 0 0 0 0 0 0 0 0 0 0 0 0 0 0 0 0 127 0" result="hardAlpha"/>
<feOffset dy="1"/>
<feGaussianBlur stdDeviation="1.5"/>
<feComposite in2="hardAlpha" operator="out"/>
<feColorMatrix type="matrix" values="0 0 0 0 0 0 0 0 0 0 0 0 0 0 0 0 0 0 0.1 0"/>
<feBlend mode="normal" in2="BackgroundImageFix" result="effect1_dropShadow_12_5"/>
<feColorMatrix in="SourceAlpha" type="matrix" values="0 0 0 0 0 0 0 0 0 0 0 0 0 0 0 0 0 0 127 0" result="hardAlpha"/>
<feMorphology radius="1" operator="erode" in="SourceAlpha" result="effect2_dropShadow_12_5"/>
<feOffset dy="1"/>
<feGaussianBlur stdDeviation="1"/>
<feComposite in2="hardAlpha" operator="out"/>
<feColorMatrix type="matrix" values="0 0 0 0 0 0 0 0 0 0 0 0 0 0 0 0 0 0 0.1 0"/>
<feBlend mode="normal" in2="effect1_dropShadow_12_5" result="effect2_dropShadow_12_5"/>
<feBlend mode="normal" in="SourceGraphic" in2="effect2_dropShadow_12_5" result="shape"/>
</filter>
<filter id="filter13_dd_12_5" x="63" y="239" width="61" height="30" filterUnits="userSpaceOnUse" color-interpolation-filters="sRGB">
<feFlood flood-opacity="0" result="BackgroundImageFix"/>
<feColorMatrix in="SourceAlpha" type="matrix" values="0 0 0 0 0 0 0 0 0 0 0 0 0 0 0 0 0 0 127 0" result="hardAlpha"/>
<feOffset dy="1"/>
<feGaussianBlur stdDeviation="1.5"/>
<feComposite in2="hardAlpha" operator="out"/>
<feColorMatrix type="matrix" values="0 0 0 0 0 0 0 0 0 0 0 0 0 0 0 0 0 0 0.1 0"/>
<feBlend mode="normal" in2="BackgroundImageFix" result="effect1_dropShadow_12_5"/>
<feColorMatrix in="SourceAlpha" type="matrix" values="0 0 0 0 0 0 0 0 0 0 0 0 0 0 0 0 0 0 127 0" result="hardAlpha"/>
<feMorphology radius="1" operator="erode" in="SourceAlpha" result="effect2_dropShadow_12_5"/>
<feOffset dy="1"/>
<feGaussianBlur stdDeviation="1"/>
<feComposite in2="hardAlpha" operator="out"/>
<feColorMatrix type="matrix" values="0 0 0 0 0 0 0 0 0 0 0 0 0 0 0 0 0 0 0.1 0"/>
<feBlend mode="normal" in2="effect1_dropShadow_12_5" result="effect2_dropShadow_12_5"/>
<feBlend mode="normal" in="SourceGraphic" in2="effect2_dropShadow_12_5" result="shape"/>
</filter>
<filter id="filter14_dd_12_5" x="126" y="239" width="75" height="30" filterUnits="userSpaceOnUse" color-interpolation-filters="sRGB">
<feFlood flood-opacity="0" result="BackgroundImageFix"/>
<feColorMatrix in="SourceAlpha" type="matrix" values="0 0 0 0 0 0 0 0 0 0 0 0 0 0 0 0 0 0 127 0" result="hardAlpha"/>
<feOffset dy="1"/>
<feGaussianBlur stdDeviation="1.5"/>
<feComposite in2="hardAlpha" operator="out"/>
<feColorMatrix type="matrix" values="0 0 0 0 0 0 0 0 0 0 0 0 0 0 0 0 0 0 0.1 0"/>
<feBlend mode="normal" in2="BackgroundImageFix" result="effect1_dropShadow_12_5"/>
<feColorMatrix in="SourceAlpha" type="matrix" values="0 0 0 0 0 0 0 0 0 0 0 0 0 0 0 0 0 0 127 0" result="hardAlpha"/>
<feMorphology radius="1" operator="erode" in="SourceAlpha" result="effect2_dropShadow_12_5"/>
<feOffset dy="1"/>
<feGaussianBlur stdDeviation="1"/>
<feComposite in2="hardAlpha" operator="out"/>
<feColorMatrix type="matrix" values="0 0 0 0 0 0 0 0 0 0 0 0 0 0 0 0 0 0 0.1 0"/>
<feBlend mode="normal" in2="effect1_dropShadow_12_5" result="effect2_dropShadow_12_5"/>
<feBlend mode="normal" in="SourceGraphic" in2="effect2_dropShadow_12_5" result="shape"/>
</filter>
<linearGradient id="paint0_linear_12_5" x1="198.5" y1="1" x2="198.5" y2="168.443" gradientUnits="userSpaceOnUse">
<stop stop-color="#80DED1"/>
<stop offset="1" stop-opacity="0"/>
</linearGradient>
<clipPath id="clip0_12_5">
<rect width="12" height="12" fill="white" transform="translate(61 14)"/>
</clipPath>
<clipPath id="clip1_12_5">
<rect width="353" height="56" fill="white" transform="translate(22 89)"/>
</clipPath>
<clipPath id="clip2_12_5">
<rect width="353" height="60" fill="white" transform="translate(22 157)"/>
</clipPath>
<clipPath id="clip3_12_5">
<rect width="353" height="48" fill="white" transform="translate(22 229)"/>
</clipPath>
</defs>
</svg>
